<svg width="28" height="28" viewBox="0 0 28 28" fill="none" xmlns="http://www.w3.org/2000/svg">
<path d="M20.3636 1.90912V3.50003C20.3636 4.25951 20.0619 4.98789 19.5249 5.52493C18.9879 6.06196 18.2595 6.36367 17.5 6.36367C16.7405 6.36367 16.0121 6.06196 15.4751 5.52493C14.9381 4.98789 14.6364 4.25951 14.6364 3.50003V1.90912H8.90909V3.50003C8.90909 4.25951 8.60739 4.98789 8.07035 5.52493C7.53331 6.06196 6.80494 6.36367 6.04545 6.36367C5.28597 6.36367 4.55759 6.06196 4.02056 5.52493C3.48352 4.98789 3.18182 4.25951 3.18182 3.50003V1.90912C2.33795 1.90912 1.52864 2.24435 0.931933 2.84105C0.335226 3.43776 0 4.24707 0 5.09094V8.27276H23.5455V5.09094C23.5455 4.24707 23.2102 3.43776 22.6135 2.84105C22.0168 2.24435 21.2075 1.90912 20.3636 1.90912Z" fill="url(#paint0_linear_145_3965)"/>
<path d="M19.0909 1.59091C19.0909 0.712274 18.3786 0 17.5 0C16.6214 0 15.9091 0.712274 15.9091 1.59091V3.5C15.9091 4.37863 16.6214 5.09091 17.5 5.09091C18.3786 5.09091 19.0909 4.37863 19.0909 3.5V1.59091Z" fill="black"/>
<path d="M19.0909 1.59091C19.0909 0.712274 18.3786 0 17.5 0C16.6214 0 15.9091 0.712274 15.9091 1.59091V3.5C15.9091 4.37863 16.6214 5.09091 17.5 5.09091C18.3786 5.09091 19.0909 4.37863 19.0909 3.5V1.59091Z" fill="url(#paint1_linear_145_3965)"/>
<path d="M7.63636 1.59091C7.63636 0.712274 6.92409 0 6.04545 0C5.16682 0 4.45455 0.712274 4.45455 1.59091V3.5C4.45455 4.37863 5.16682 5.09091 6.04545 5.09091C6.92409 5.09091 7.63636 4.37863 7.63636 3.5V1.59091Z" fill="black"/>
<path d="M7.63636 1.59091C7.63636 0.712274 6.92409 0 6.04545 0C5.16682 0 4.45455 0.712274 4.45455 1.59091V3.5C4.45455 4.37863 5.16682 5.09091 6.04545 5.09091C6.92409 5.09091 7.63636 4.37863 7.63636 3.5V1.59091Z" fill="url(#paint2_linear_145_3965)"/>
<path d="M14 21.6364C13.9995 20.3758 14.3115 19.1347 14.9081 18.0242C15.5047 16.9137 16.3672 15.9683 17.4185 15.2728H16.5455C16.2079 15.2728 15.8842 15.1387 15.6455 14.9C15.4068 14.6613 15.2727 14.3376 15.2727 14V12.7273C15.2727 12.3898 15.4068 12.066 15.6455 11.8273C15.8842 11.5887 16.2079 11.4546 16.5455 11.4546H17.8182C18.1557 11.4546 18.4795 11.5887 18.7181 11.8273C18.9568 12.066 19.0909 12.3898 19.0909 12.7273V14C19.0908 14.1642 19.0586 14.3268 18.9961 14.4786C20.4519 13.931 22.0422 13.8512 23.5455 14.2501V9.54548H0V21.6364C0 22.0542 0.0823002 22.468 0.242201 22.854C0.402103 23.2401 0.636474 23.5908 0.931933 23.8863C1.22739 24.1817 1.57815 24.4161 1.96419 24.576C2.35022 24.7359 2.76398 24.8182 3.18182 24.8182H14.7C14.2391 23.8208 14.0002 22.7352 14 21.6364ZM7.63636 20.3637C7.63636 20.7012 7.50227 21.0249 7.26359 21.2636C7.02491 21.5023 6.70118 21.6364 6.36364 21.6364H5.09091C4.75336 21.6364 4.42964 21.5023 4.19095 21.2636C3.95227 21.0249 3.81818 20.7012 3.81818 20.3637V19.0909C3.81818 18.7534 3.95227 18.4297 4.19095 18.191C4.42964 17.9523 4.75336 17.8182 5.09091 17.8182H6.36364C6.70118 17.8182 7.02491 17.9523 7.26359 18.191C7.50227 18.4297 7.63636 18.7534 7.63636 19.0909V20.3637ZM7.63636 14C7.63636 14.3376 7.50227 14.6613 7.26359 14.9C7.02491 15.1387 6.70118 15.2728 6.36364 15.2728H5.09091C4.75336 15.2728 4.42964 15.1387 4.19095 14.9C3.95227 14.6613 3.81818 14.3376 3.81818 14V12.7273C3.81818 12.3898 3.95227 12.066 4.19095 11.8273C4.42964 11.5887 4.75336 11.4546 5.09091 11.4546H6.36364C6.70118 11.4546 7.02491 11.5887 7.26359 11.8273C7.50227 12.066 7.63636 12.3898 7.63636 12.7273V14ZM13.3636 20.3637C13.3636 20.7012 13.2295 21.0249 12.9909 21.2636C12.7522 21.5023 12.4285 21.6364 12.0909 21.6364H10.8182C10.4806 21.6364 10.1569 21.5023 9.91823 21.2636C9.67954 21.0249 9.54545 20.7012 9.54545 20.3637V19.0909C9.54545 18.7534 9.67954 18.4297 9.91823 18.191C10.1569 17.9523 10.4806 17.8182 10.8182 17.8182H12.0909C12.4285 17.8182 12.7522 17.9523 12.9909 18.191C13.2295 18.4297 13.3636 18.7534 13.3636 19.0909V20.3637ZM13.3636 14C13.3636 14.3376 13.2295 14.6613 12.9909 14.9C12.7522 15.1387 12.4285 15.2728 12.0909 15.2728H10.8182C10.4806 15.2728 10.1569 15.1387 9.91823 14.9C9.67954 14.6613 9.54545 14.3376 9.54545 14V12.7273C9.54545 12.3898 9.67954 12.066 9.91823 11.8273C10.1569 11.5887 10.4806 11.4546 10.8182 11.4546H12.0909C12.4285 11.4546 12.7522 11.5887 12.9909 11.8273C13.2295 12.066 13.3636 12.3898 13.3636 12.7273V14Z" fill="url(#paint3_linear_145_3965)"/>
<path d="M21.6364 15.2728C20.3778 15.2728 19.1474 15.646 18.1009 16.3452C17.0544 17.0445 16.2388 18.0383 15.7571 19.2011C15.2755 20.3639 15.1495 21.6435 15.395 22.8779C15.6405 24.1123 16.2466 25.2462 17.1366 26.1362C18.0266 27.0261 19.1605 27.6322 20.3949 27.8778C21.6293 28.1233 22.9088 27.9973 24.0716 27.5156C25.2344 27.034 26.2283 26.2183 26.9275 25.1718C27.6268 24.1253 28 22.895 28 21.6364C28 20.8007 27.8354 19.9732 27.5156 19.2011C27.1958 18.4291 26.7271 17.7275 26.1361 17.1366C25.5452 16.5457 24.8437 16.077 24.0716 15.7572C23.2996 15.4374 22.472 15.2728 21.6364 15.2728ZM23.9954 23.9954C23.876 24.1147 23.7142 24.1817 23.5455 24.1817C23.3767 24.1817 23.2149 24.1147 23.0955 23.9954L21.1865 22.0863C21.0671 21.967 21 21.8052 21 21.6364V17.8182C21 17.6494 21.067 17.4876 21.1864 17.3682C21.3057 17.2489 21.4676 17.1818 21.6364 17.1818C21.8051 17.1818 21.967 17.2489 22.0863 17.3682C22.2057 17.4876 22.2727 17.6494 22.2727 17.8182V21.3729L23.9954 23.0956C24.1147 23.2149 24.1817 23.3767 24.1817 23.5455C24.1817 23.7142 24.1147 23.8761 23.9954 23.9954Z" fill="url(#paint4_linear_145_3965)"/>
<defs>
<linearGradient id="paint0_linear_145_3965" x1="15.2727" y1="15.2727" x2="28.8253" y2="16.2223" gradientUnits="userSpaceOnUse">
<stop stop-color="#16ADEC"/>
<stop offset="1" stop-color="#1464DB"/>
</linearGradient>
<linearGradient id="paint1_linear_145_3965" x1="14" y1="28" x2="-2.25251" y2="14.6581" gradientUnits="userSpaceOnUse">
<stop stop-color="#BFBFBF"/>
<stop offset="1" stop-color="white"/>
</linearGradient>
<linearGradient id="paint2_linear_145_3965" x1="14" y1="28" x2="-2.25251" y2="14.6581" gradientUnits="userSpaceOnUse">
<stop stop-color="#BFBFBF"/>
<stop offset="1" stop-color="white"/>
</linearGradient>
<linearGradient id="paint3_linear_145_3965" x1="14" y1="28" x2="-2.25251" y2="14.6581" gradientUnits="userSpaceOnUse">
<stop stop-color="#BFBFBF"/>
<stop offset="1" stop-color="white"/>
</linearGradient>
<linearGradient id="paint4_linear_145_3965" x1="15.2727" y1="15.2727" x2="28.8253" y2="16.2223" gradientUnits="userSpaceOnUse">
<stop stop-color="#16ADEC"/>
<stop offset="1" stop-color="#1464DB"/>
</linearGradient>
</defs>
</svg>
