<svg width="144" height="51" viewBox="0 0 144 51" fill="none" xmlns="http://www.w3.org/2000/svg">
<path d="M13.7293 13.2826L14.1331 12.3562C15.5108 12.3879 16.643 12.6017 17.5298 12.9976C18.4324 13.3776 19.1054 13.916 19.5488 14.6128C19.9922 15.2937 20.2139 16.0855 20.2139 16.9881C20.2139 17.9541 19.9922 18.8171 19.5488 19.5772C19.1054 20.3214 18.4403 20.9153 17.5535 21.3587C16.6826 21.7862 15.59 22 14.2756 22H1.1164L2.49408 12.8551L1.1164 4.18517H13.8006C15.4474 4.18517 16.7301 4.57314 17.6486 5.34907C18.567 6.10917 19.0262 7.17014 19.0262 8.53199C19.0262 9.27625 18.852 9.98885 18.5037 10.6698C18.1553 11.3507 17.5931 11.9287 16.8172 12.4037C16.0571 12.863 15.0278 13.1559 13.7293 13.2826ZM5.98578 20.8599L4.08553 18.5558H12.9454C13.658 18.5558 14.2123 18.3816 14.6082 18.0332C15.004 17.6849 15.202 17.2019 15.202 16.5843C15.202 15.9667 14.9882 15.4758 14.5607 15.1116C14.1331 14.7316 13.4997 14.5415 12.6604 14.5415H5.34445V11.1686H11.9953C12.5654 11.1686 13.0405 11.0023 13.4205 10.6698C13.8164 10.3214 14.0143 9.85425 14.0143 9.26834C14.0143 8.79327 13.8481 8.40531 13.5155 8.10443C13.183 7.78773 12.7079 7.62937 12.0903 7.62937H4.10929L5.98578 5.32532L7.19719 12.8551L5.98578 20.8599ZM42.349 14.5415C42.1748 16.1092 41.6364 17.4869 40.7338 18.6746C39.8312 19.8464 38.6435 20.7569 37.1708 21.4062C35.714 22.0554 34.0354 22.38 32.1352 22.38C30.0607 22.38 28.2476 21.9921 26.6957 21.2161C25.1438 20.4402 23.9324 19.3555 23.0615 17.962C22.2064 16.5685 21.7788 14.9453 21.7788 13.0926C21.7788 11.2398 22.2064 9.61671 23.0615 8.2232C23.9324 6.82968 25.1438 5.74496 26.6957 4.96902C28.2476 4.19309 30.0607 3.80512 32.1352 3.80512C34.0354 3.80512 35.714 4.12975 37.1708 4.779C38.6435 5.42825 39.8312 6.3467 40.7338 7.53436C41.6364 8.70618 42.1748 10.0759 42.349 11.6436H37.4084C37.25 10.8835 36.9412 10.2422 36.482 9.71965C36.0228 9.18124 35.421 8.76952 34.6767 8.48448C33.9483 8.19945 33.1011 8.05693 32.1352 8.05693C31.0267 8.05693 30.0686 8.26279 29.261 8.67451C28.4534 9.07039 27.8359 9.64839 27.4083 10.4085C26.9807 11.1527 26.767 12.0474 26.767 13.0926C26.767 14.1377 26.9807 15.0403 27.4083 15.8004C27.8359 16.5447 28.4534 17.1227 29.261 17.5344C30.0686 17.9303 31.0267 18.1282 32.1352 18.1282C33.1011 18.1282 33.9483 17.9936 34.6767 17.7244C35.421 17.4552 36.0228 17.0514 36.482 16.513C36.9412 15.9746 37.25 15.3175 37.4084 14.5415H42.349ZM52.4123 22.38C50.6704 22.38 49.1502 22.0871 47.8517 21.5012C46.5532 20.8994 45.5398 20.0602 44.8113 18.9834C44.0829 17.8907 43.7187 16.6397 43.7187 15.2304C43.7187 13.7893 44.0829 12.5304 44.8113 11.4536C45.5398 10.3768 46.5532 9.53754 47.8517 8.93579C49.1502 8.33405 50.6704 8.03318 52.4123 8.03318C54.1384 8.03318 55.6507 8.33405 56.9492 8.93579C58.2635 9.53754 59.2849 10.3768 60.0133 11.4536C60.7418 12.5304 61.106 13.7893 61.106 15.2304C61.106 16.6397 60.7418 17.8907 60.0133 18.9834C59.2849 20.0602 58.2635 20.8994 56.9492 21.5012C55.6507 22.0871 54.1384 22.38 52.4123 22.38ZM52.4123 18.7933C53.2041 18.7933 53.8771 18.6508 54.4314 18.3658C55.0014 18.0807 55.4369 17.669 55.7378 17.1306C56.0386 16.5922 56.1891 15.9588 56.1891 15.2304C56.1891 14.4703 56.0386 13.8289 55.7378 13.3064C55.4369 12.768 55.0014 12.3562 54.4314 12.0712C53.8771 11.7862 53.2041 11.6436 52.4123 11.6436C51.6206 11.6436 50.9396 11.7862 50.3696 12.0712C49.7995 12.3562 49.364 12.768 49.0631 13.3064C48.7623 13.8289 48.6118 14.4623 48.6118 15.2066C48.6118 15.9509 48.7623 16.5922 49.0631 17.1306C49.364 17.669 49.7995 18.0807 50.3696 18.3658C50.9396 18.6508 51.6206 18.7933 52.4123 18.7933ZM75.5002 22L74.8588 16.9168L75.6902 15.2541L74.8826 13.1638L76.0227 3.71011H81.0584L79.657 14.8503L80.5121 22H75.5002ZM76.5453 15.2304C76.3236 16.6556 75.8802 17.9065 75.2151 18.9834C74.5659 20.0602 73.7345 20.8994 72.7211 21.5012C71.7234 22.0871 70.5833 22.38 69.3006 22.38C67.9704 22.38 66.7986 22.0871 65.7852 21.5012C64.7875 20.8994 64.0037 20.0602 63.4336 18.9834C62.8635 17.8907 62.5785 16.6397 62.5785 15.2304C62.5785 13.7893 62.8635 12.5304 63.4336 11.4536C64.0037 10.3768 64.7875 9.53754 65.7852 8.93579C66.7986 8.33405 67.9704 8.03318 69.3006 8.03318C70.5833 8.03318 71.7234 8.33405 72.7211 8.93579C73.7345 9.5217 74.5738 10.3531 75.2389 11.4299C75.904 12.4908 76.3394 13.7577 76.5453 15.2304ZM67.4954 15.2304C67.4954 15.8955 67.63 16.4893 67.8992 17.0118C68.1842 17.5344 68.5722 17.9461 69.0631 18.247C69.554 18.532 70.1161 18.6746 70.7495 18.6746C71.4146 18.6746 72.0401 18.532 72.626 18.247C73.212 17.9461 73.7266 17.5344 74.17 17.0118C74.6134 16.4893 74.9459 15.8955 75.1676 15.2304C74.9459 14.5494 74.6134 13.9477 74.17 13.4251C73.7266 12.9026 73.212 12.4908 72.626 12.19C72.0401 11.8891 71.4146 11.7387 70.7495 11.7387C70.1161 11.7387 69.554 11.8891 69.0631 12.19C68.5722 12.4908 68.1842 12.9026 67.8992 13.4251C67.63 13.9477 67.4954 14.5494 67.4954 15.2304ZM90.6836 22.38C89.0367 22.38 87.564 22.0792 86.2655 21.4774C84.9829 20.8757 83.9694 20.0364 83.2251 18.9596C82.4809 17.867 82.1087 16.6001 82.1087 15.1591C82.1087 13.7498 82.465 12.5146 83.1776 11.4536C83.8902 10.3768 84.8641 9.53754 86.0992 8.93579C87.3502 8.33405 88.7596 8.03318 90.3273 8.03318C91.9583 8.03318 93.3439 8.38947 94.4841 9.10206C95.6401 9.79882 96.5269 10.7885 97.1444 12.0712C97.7779 13.3539 98.0946 14.8662 98.0946 16.608H86.028V13.6864H95.363L93.7715 14.7078C93.7082 14.011 93.534 13.4251 93.2489 12.9501C92.9639 12.4592 92.5838 12.087 92.1088 11.8337C91.6496 11.5803 91.0953 11.4536 90.4461 11.4536C89.7335 11.4536 89.1238 11.5961 88.6171 11.8812C88.1103 12.1662 87.7145 12.5621 87.4294 13.0688C87.1444 13.5597 87.0019 14.1377 87.0019 14.8028C87.0019 15.6579 87.1919 16.3863 87.5719 16.9881C87.9678 17.574 88.5379 18.0253 89.2822 18.342C90.0423 18.6587 90.9686 18.8171 92.0613 18.8171C93.0589 18.8171 94.0486 18.6904 95.0304 18.437C96.028 18.1678 96.9307 17.7957 97.7383 17.3206V20.4085C96.804 21.042 95.7351 21.5329 94.5316 21.8812C93.3439 22.2138 92.0613 22.38 90.6836 22.38Z" fill="white"/>
<path d="M13.7293 13.2826L14.1331 12.3562C15.5108 12.3879 16.643 12.6017 17.5298 12.9976C18.4324 13.3776 19.1054 13.916 19.5488 14.6128C19.9922 15.2937 20.2139 16.0855 20.2139 16.9881C20.2139 17.9541 19.9922 18.8171 19.5488 19.5772C19.1054 20.3214 18.4403 20.9153 17.5535 21.3587C16.6826 21.7862 15.59 22 14.2756 22H1.1164L2.49408 12.8551L1.1164 4.18517H13.8006C15.4474 4.18517 16.7301 4.57314 17.6486 5.34907C18.567 6.10917 19.0262 7.17014 19.0262 8.53199C19.0262 9.27625 18.852 9.98885 18.5037 10.6698C18.1553 11.3507 17.5931 11.9287 16.8172 12.4037C16.0571 12.863 15.0278 13.1559 13.7293 13.2826ZM5.98578 20.8599L4.08553 18.5558H12.9454C13.658 18.5558 14.2123 18.3816 14.6082 18.0332C15.004 17.6849 15.202 17.2019 15.202 16.5843C15.202 15.9667 14.9882 15.4758 14.5607 15.1116C14.1331 14.7316 13.4997 14.5415 12.6604 14.5415H5.34445V11.1686H11.9953C12.5654 11.1686 13.0405 11.0023 13.4205 10.6698C13.8164 10.3214 14.0143 9.85425 14.0143 9.26834C14.0143 8.79327 13.8481 8.40531 13.5155 8.10443C13.183 7.78773 12.7079 7.62937 12.0903 7.62937H4.10929L5.98578 5.32532L7.19719 12.8551L5.98578 20.8599ZM42.349 14.5415C42.1748 16.1092 41.6364 17.4869 40.7338 18.6746C39.8312 19.8464 38.6435 20.7569 37.1708 21.4062C35.714 22.0554 34.0354 22.38 32.1352 22.38C30.0607 22.38 28.2476 21.9921 26.6957 21.2161C25.1438 20.4402 23.9324 19.3555 23.0615 17.962C22.2064 16.5685 21.7788 14.9453 21.7788 13.0926C21.7788 11.2398 22.2064 9.61671 23.0615 8.2232C23.9324 6.82968 25.1438 5.74496 26.6957 4.96902C28.2476 4.19309 30.0607 3.80512 32.1352 3.80512C34.0354 3.80512 35.714 4.12975 37.1708 4.779C38.6435 5.42825 39.8312 6.3467 40.7338 7.53436C41.6364 8.70618 42.1748 10.0759 42.349 11.6436H37.4084C37.25 10.8835 36.9412 10.2422 36.482 9.71965C36.0228 9.18124 35.421 8.76952 34.6767 8.48448C33.9483 8.19945 33.1011 8.05693 32.1352 8.05693C31.0267 8.05693 30.0686 8.26279 29.261 8.67451C28.4534 9.07039 27.8359 9.64839 27.4083 10.4085C26.9807 11.1527 26.767 12.0474 26.767 13.0926C26.767 14.1377 26.9807 15.0403 27.4083 15.8004C27.8359 16.5447 28.4534 17.1227 29.261 17.5344C30.0686 17.9303 31.0267 18.1282 32.1352 18.1282C33.1011 18.1282 33.9483 17.9936 34.6767 17.7244C35.421 17.4552 36.0228 17.0514 36.482 16.513C36.9412 15.9746 37.25 15.3175 37.4084 14.5415H42.349ZM52.4123 22.38C50.6704 22.38 49.1502 22.0871 47.8517 21.5012C46.5532 20.8994 45.5398 20.0602 44.8113 18.9834C44.0829 17.8907 43.7187 16.6397 43.7187 15.2304C43.7187 13.7893 44.0829 12.5304 44.8113 11.4536C45.5398 10.3768 46.5532 9.53754 47.8517 8.93579C49.1502 8.33405 50.6704 8.03318 52.4123 8.03318C54.1384 8.03318 55.6507 8.33405 56.9492 8.93579C58.2635 9.53754 59.2849 10.3768 60.0133 11.4536C60.7418 12.5304 61.106 13.7893 61.106 15.2304C61.106 16.6397 60.7418 17.8907 60.0133 18.9834C59.2849 20.0602 58.2635 20.8994 56.9492 21.5012C55.6507 22.0871 54.1384 22.38 52.4123 22.38ZM52.4123 18.7933C53.2041 18.7933 53.8771 18.6508 54.4314 18.3658C55.0014 18.0807 55.4369 17.669 55.7378 17.1306C56.0386 16.5922 56.1891 15.9588 56.1891 15.2304C56.1891 14.4703 56.0386 13.8289 55.7378 13.3064C55.4369 12.768 55.0014 12.3562 54.4314 12.0712C53.8771 11.7862 53.2041 11.6436 52.4123 11.6436C51.6206 11.6436 50.9396 11.7862 50.3696 12.0712C49.7995 12.3562 49.364 12.768 49.0631 13.3064C48.7623 13.8289 48.6118 14.4623 48.6118 15.2066C48.6118 15.9509 48.7623 16.5922 49.0631 17.1306C49.364 17.669 49.7995 18.0807 50.3696 18.3658C50.9396 18.6508 51.6206 18.7933 52.4123 18.7933ZM75.5002 22L74.8588 16.9168L75.6902 15.2541L74.8826 13.1638L76.0227 3.71011H81.0584L79.657 14.8503L80.5121 22H75.5002ZM76.5453 15.2304C76.3236 16.6556 75.8802 17.9065 75.2151 18.9834C74.5659 20.0602 73.7345 20.8994 72.7211 21.5012C71.7234 22.0871 70.5833 22.38 69.3006 22.38C67.9704 22.38 66.7986 22.0871 65.7852 21.5012C64.7875 20.8994 64.0037 20.0602 63.4336 18.9834C62.8635 17.8907 62.5785 16.6397 62.5785 15.2304C62.5785 13.7893 62.8635 12.5304 63.4336 11.4536C64.0037 10.3768 64.7875 9.53754 65.7852 8.93579C66.7986 8.33405 67.9704 8.03318 69.3006 8.03318C70.5833 8.03318 71.7234 8.33405 72.7211 8.93579C73.7345 9.5217 74.5738 10.3531 75.2389 11.4299C75.904 12.4908 76.3394 13.7577 76.5453 15.2304ZM67.4954 15.2304C67.4954 15.8955 67.63 16.4893 67.8992 17.0118C68.1842 17.5344 68.5722 17.9461 69.0631 18.247C69.554 18.532 70.1161 18.6746 70.7495 18.6746C71.4146 18.6746 72.0401 18.532 72.626 18.247C73.212 17.9461 73.7266 17.5344 74.17 17.0118C74.6134 16.4893 74.9459 15.8955 75.1676 15.2304C74.9459 14.5494 74.6134 13.9477 74.17 13.4251C73.7266 12.9026 73.212 12.4908 72.626 12.19C72.0401 11.8891 71.4146 11.7387 70.7495 11.7387C70.1161 11.7387 69.554 11.8891 69.0631 12.19C68.5722 12.4908 68.1842 12.9026 67.8992 13.4251C67.63 13.9477 67.4954 14.5494 67.4954 15.2304ZM90.6836 22.38C89.0367 22.38 87.564 22.0792 86.2655 21.4774C84.9829 20.8757 83.9694 20.0364 83.2251 18.9596C82.4809 17.867 82.1087 16.6001 82.1087 15.1591C82.1087 13.7498 82.465 12.5146 83.1776 11.4536C83.8902 10.3768 84.8641 9.53754 86.0992 8.93579C87.3502 8.33405 88.7596 8.03318 90.3273 8.03318C91.9583 8.03318 93.3439 8.38947 94.4841 9.10206C95.6401 9.79882 96.5269 10.7885 97.1444 12.0712C97.7779 13.3539 98.0946 14.8662 98.0946 16.608H86.028V13.6864H95.363L93.7715 14.7078C93.7082 14.011 93.534 13.4251 93.2489 12.9501C92.9639 12.4592 92.5838 12.087 92.1088 11.8337C91.6496 11.5803 91.0953 11.4536 90.4461 11.4536C89.7335 11.4536 89.1238 11.5961 88.6171 11.8812C88.1103 12.1662 87.7145 12.5621 87.4294 13.0688C87.1444 13.5597 87.0019 14.1377 87.0019 14.8028C87.0019 15.6579 87.1919 16.3863 87.5719 16.9881C87.9678 17.574 88.5379 18.0253 89.2822 18.342C90.0423 18.6587 90.9686 18.8171 92.0613 18.8171C93.0589 18.8171 94.0486 18.6904 95.0304 18.437C96.028 18.1678 96.9307 17.7957 97.7383 17.3206V20.4085C96.804 21.042 95.7351 21.5329 94.5316 21.8812C93.3439 22.2138 92.0613 22.38 90.6836 22.38Z" fill="url(#paint0_linear_1_7799)"/>
<path d="M45.5114 39.5479H50.5233C50.6024 40.0388 50.8321 40.4663 51.2121 40.8306C51.5922 41.1948 52.0989 41.4798 52.7323 41.6857C53.3816 41.8757 54.1417 41.9707 55.0126 41.9707C56.2161 41.9707 57.1662 41.8203 57.863 41.5194C58.5597 41.2027 58.9081 40.7435 58.9081 40.1417C58.9081 39.6825 58.7102 39.3262 58.3143 39.0728C57.9184 38.8195 57.1583 38.6374 56.034 38.5265L52.7086 38.2177C50.2541 37.996 48.4726 37.4418 47.3641 36.555C46.2556 35.6524 45.7014 34.441 45.7014 32.9208C45.7014 31.6856 46.0577 30.6405 46.7703 29.7854C47.4987 28.9303 48.5122 28.2889 49.8107 27.8614C51.125 27.418 52.6531 27.1963 54.395 27.1963C56.1052 27.1963 57.6254 27.4417 58.9556 27.9326C60.2858 28.4077 61.3388 29.0886 62.1148 29.9754C62.9066 30.8622 63.3341 31.8915 63.3974 33.0633H58.4093C58.346 32.6357 58.1401 32.2715 57.7917 31.9707C57.4592 31.6539 56.9999 31.4164 56.414 31.2581C55.8281 31.0839 55.1235 30.9968 54.3 30.9968C53.1915 30.9968 52.3127 31.1472 51.6634 31.4481C51.0142 31.7331 50.6895 32.1607 50.6895 32.7308C50.6895 33.1425 50.8796 33.475 51.2596 33.7284C51.6555 33.9818 52.3602 34.1559 53.3736 34.251L56.9129 34.6072C58.6072 34.7656 59.9612 35.0427 60.9746 35.4386C61.9881 35.8187 62.7244 36.3491 63.1837 37.0301C63.6429 37.711 63.8725 38.5582 63.8725 39.5716C63.8725 40.8226 63.5004 41.9153 62.7561 42.8496C62.0119 43.768 60.9667 44.4885 59.6207 45.0111C58.2747 45.5178 56.707 45.7712 54.9176 45.7712C53.0807 45.7712 51.4576 45.5178 50.0482 45.0111C48.6547 44.4885 47.562 43.7601 46.7703 42.8258C45.9785 41.8757 45.5589 40.7831 45.5114 39.5479ZM64.6085 35.4149V33.3008L67.3638 32.1844L69.4541 28.1702H72.2095V31.8281H77.9102V35.4149H72.2095V39.4054C72.2095 40.3872 72.4074 41.076 72.8033 41.4719C73.1992 41.8678 73.9197 42.0657 74.9648 42.0657C75.6299 42.0657 76.2158 42.0103 76.7226 41.8995C77.2451 41.7728 77.7202 41.6144 78.1478 41.4244V45.0824C77.6727 45.2566 77.0472 45.4149 76.2713 45.5574C75.4953 45.6999 74.6956 45.7712 73.8722 45.7712C72.3678 45.7712 71.1327 45.5416 70.1667 45.0824C69.2166 44.6231 68.5119 43.966 68.0527 43.1109C67.5935 42.2399 67.3638 41.2264 67.3638 40.0705V35.4149H64.6085ZM85.9516 45.7712C84.6847 45.7712 83.6 45.5099 82.6974 44.9874C81.8106 44.4648 81.1297 43.7284 80.6546 42.7783C80.1796 41.8124 79.942 40.688 79.942 39.4054V31.8281H84.7877V38.7165C84.7877 39.7142 85.0331 40.4822 85.524 41.0206C86.0149 41.559 86.7196 41.8282 87.638 41.8282C88.319 41.8282 88.889 41.6936 89.3483 41.4244C89.8075 41.1394 90.1638 40.7356 90.4172 40.213C90.6705 39.6904 90.7972 39.0649 90.7972 38.3365L92.2937 39.1203C92.1195 40.5614 91.7236 41.7807 91.106 42.7783C90.5043 43.7601 89.76 44.5044 88.8732 45.0111C87.9864 45.5178 87.0126 45.7712 85.9516 45.7712ZM91.6761 45.3912L90.7972 39.9517V31.8281H95.6428V40.7118L96.5217 45.3912H91.6761ZM110.855 45.3912L110.213 40.308L111.045 38.6453L110.237 36.555L111.377 27.1013H116.413L115.011 38.2415L115.867 45.3912H110.855ZM111.9 38.6215C111.678 40.0467 111.235 41.2977 110.57 42.3745C109.92 43.4513 109.089 44.2906 108.076 44.8923C107.078 45.4783 105.938 45.7712 104.655 45.7712C103.325 45.7712 102.153 45.4783 101.14 44.8923C100.142 44.2906 99.3582 43.4513 98.7881 42.3745C98.218 41.2819 97.933 40.0309 97.933 38.6215C97.933 37.1805 98.218 35.9216 98.7881 34.8448C99.3582 33.768 100.142 32.9287 101.14 32.327C102.153 31.7252 103.325 31.4243 104.655 31.4243C105.938 31.4243 107.078 31.7252 108.076 32.327C109.089 32.9129 109.928 33.7442 110.593 34.821C111.258 35.882 111.694 37.1488 111.9 38.6215ZM102.85 38.6215C102.85 39.2866 102.984 39.8804 103.254 40.403C103.539 40.9256 103.927 41.3373 104.418 41.6382C104.908 41.9232 105.471 42.0657 106.104 42.0657C106.769 42.0657 107.395 41.9232 107.981 41.6382C108.566 41.3373 109.081 40.9256 109.524 40.403C109.968 39.8804 110.3 39.2866 110.522 38.6215C110.3 37.9406 109.968 37.3389 109.524 36.8163C109.081 36.2937 108.566 35.882 107.981 35.5811C107.395 35.2803 106.769 35.1298 106.104 35.1298C105.471 35.1298 104.908 35.2803 104.418 35.5811C103.927 35.882 103.539 36.2937 103.254 36.8163C102.984 37.3389 102.85 37.9406 102.85 38.6215ZM118.174 31.6144L120.62 32.0894L123.043 31.6144V45.3912H118.174V31.6144ZM120.596 30.498C119.757 30.498 119.076 30.2921 118.554 29.8804C118.031 29.4528 117.77 28.8748 117.77 28.1464C117.77 27.4338 118.031 26.8637 118.554 26.4362C119.076 26.0086 119.757 25.7948 120.596 25.7948C121.467 25.7948 122.156 26.0086 122.663 26.4362C123.185 26.8637 123.447 27.4338 123.447 28.1464C123.447 28.8748 123.185 29.4528 122.663 29.8804C122.156 30.2921 121.467 30.498 120.596 30.498ZM133.788 45.7712C132.047 45.7712 130.526 45.4783 129.228 44.8923C127.929 44.2906 126.916 43.4513 126.187 42.3745C125.459 41.2819 125.095 40.0309 125.095 38.6215C125.095 37.1805 125.459 35.9216 126.187 34.8448C126.916 33.768 127.929 32.9287 129.228 32.327C130.526 31.7252 132.047 31.4243 133.788 31.4243C135.515 31.4243 137.027 31.7252 138.325 32.327C139.64 32.9287 140.661 33.768 141.389 34.8448C142.118 35.9216 142.482 37.1805 142.482 38.6215C142.482 40.0309 142.118 41.2819 141.389 42.3745C140.661 43.4513 139.64 44.2906 138.325 44.8923C137.027 45.4783 135.515 45.7712 133.788 45.7712ZM133.788 42.1845C134.58 42.1845 135.253 42.042 135.807 41.7569C136.378 41.4719 136.813 41.0602 137.114 40.5218C137.415 39.9834 137.565 39.35 137.565 38.6215C137.565 37.8614 137.415 37.2201 137.114 36.6975C136.813 36.1591 136.378 35.7474 135.807 35.4624C135.253 35.1773 134.58 35.0348 133.788 35.0348C132.997 35.0348 132.316 35.1773 131.746 35.4624C131.176 35.7474 130.74 36.1591 130.439 36.6975C130.138 37.2201 129.988 37.8535 129.988 38.5978C129.988 39.342 130.138 39.9834 130.439 40.5218C130.74 41.0602 131.176 41.4719 131.746 41.7569C132.316 42.042 132.997 42.1845 133.788 42.1845Z" fill="white"/>
<path d="M45.5114 39.5479H50.5233C50.6024 40.0388 50.8321 40.4663 51.2121 40.8306C51.5922 41.1948 52.0989 41.4798 52.7323 41.6857C53.3816 41.8757 54.1417 41.9707 55.0126 41.9707C56.2161 41.9707 57.1662 41.8203 57.863 41.5194C58.5597 41.2027 58.9081 40.7435 58.9081 40.1417C58.9081 39.6825 58.7102 39.3262 58.3143 39.0728C57.9184 38.8195 57.1583 38.6374 56.034 38.5265L52.7086 38.2177C50.2541 37.996 48.4726 37.4418 47.3641 36.555C46.2556 35.6524 45.7014 34.441 45.7014 32.9208C45.7014 31.6856 46.0577 30.6405 46.7703 29.7854C47.4987 28.9303 48.5122 28.2889 49.8107 27.8614C51.125 27.418 52.6531 27.1963 54.395 27.1963C56.1052 27.1963 57.6254 27.4417 58.9556 27.9326C60.2858 28.4077 61.3388 29.0886 62.1148 29.9754C62.9066 30.8622 63.3341 31.8915 63.3974 33.0633H58.4093C58.346 32.6357 58.1401 32.2715 57.7917 31.9707C57.4592 31.6539 56.9999 31.4164 56.414 31.2581C55.8281 31.0839 55.1235 30.9968 54.3 30.9968C53.1915 30.9968 52.3127 31.1472 51.6634 31.4481C51.0142 31.7331 50.6895 32.1607 50.6895 32.7308C50.6895 33.1425 50.8796 33.475 51.2596 33.7284C51.6555 33.9818 52.3602 34.1559 53.3736 34.251L56.9129 34.6072C58.6072 34.7656 59.9612 35.0427 60.9746 35.4386C61.9881 35.8187 62.7244 36.3491 63.1837 37.0301C63.6429 37.711 63.8725 38.5582 63.8725 39.5716C63.8725 40.8226 63.5004 41.9153 62.7561 42.8496C62.0119 43.768 60.9667 44.4885 59.6207 45.0111C58.2747 45.5178 56.707 45.7712 54.9176 45.7712C53.0807 45.7712 51.4576 45.5178 50.0482 45.0111C48.6547 44.4885 47.562 43.7601 46.7703 42.8258C45.9785 41.8757 45.5589 40.7831 45.5114 39.5479ZM64.6085 35.4149V33.3008L67.3638 32.1844L69.4541 28.1702H72.2095V31.8281H77.9102V35.4149H72.2095V39.4054C72.2095 40.3872 72.4074 41.076 72.8033 41.4719C73.1992 41.8678 73.9197 42.0657 74.9648 42.0657C75.6299 42.0657 76.2158 42.0103 76.7226 41.8995C77.2451 41.7728 77.7202 41.6144 78.1478 41.4244V45.0824C77.6727 45.2566 77.0472 45.4149 76.2713 45.5574C75.4953 45.6999 74.6956 45.7712 73.8722 45.7712C72.3678 45.7712 71.1327 45.5416 70.1667 45.0824C69.2166 44.6231 68.5119 43.966 68.0527 43.1109C67.5935 42.2399 67.3638 41.2264 67.3638 40.0705V35.4149H64.6085ZM85.9516 45.7712C84.6847 45.7712 83.6 45.5099 82.6974 44.9874C81.8106 44.4648 81.1297 43.7284 80.6546 42.7783C80.1796 41.8124 79.942 40.688 79.942 39.4054V31.8281H84.7877V38.7165C84.7877 39.7142 85.0331 40.4822 85.524 41.0206C86.0149 41.559 86.7196 41.8282 87.638 41.8282C88.319 41.8282 88.889 41.6936 89.3483 41.4244C89.8075 41.1394 90.1638 40.7356 90.4172 40.213C90.6705 39.6904 90.7972 39.0649 90.7972 38.3365L92.2937 39.1203C92.1195 40.5614 91.7236 41.7807 91.106 42.7783C90.5043 43.7601 89.76 44.5044 88.8732 45.0111C87.9864 45.5178 87.0126 45.7712 85.9516 45.7712ZM91.6761 45.3912L90.7972 39.9517V31.8281H95.6428V40.7118L96.5217 45.3912H91.6761ZM110.855 45.3912L110.213 40.308L111.045 38.6453L110.237 36.555L111.377 27.1013H116.413L115.011 38.2415L115.867 45.3912H110.855ZM111.9 38.6215C111.678 40.0467 111.235 41.2977 110.57 42.3745C109.92 43.4513 109.089 44.2906 108.076 44.8923C107.078 45.4783 105.938 45.7712 104.655 45.7712C103.325 45.7712 102.153 45.4783 101.14 44.8923C100.142 44.2906 99.3582 43.4513 98.7881 42.3745C98.218 41.2819 97.933 40.0309 97.933 38.6215C97.933 37.1805 98.218 35.9216 98.7881 34.8448C99.3582 33.768 100.142 32.9287 101.14 32.327C102.153 31.7252 103.325 31.4243 104.655 31.4243C105.938 31.4243 107.078 31.7252 108.076 32.327C109.089 32.9129 109.928 33.7442 110.593 34.821C111.258 35.882 111.694 37.1488 111.9 38.6215ZM102.85 38.6215C102.85 39.2866 102.984 39.8804 103.254 40.403C103.539 40.9256 103.927 41.3373 104.418 41.6382C104.908 41.9232 105.471 42.0657 106.104 42.0657C106.769 42.0657 107.395 41.9232 107.981 41.6382C108.566 41.3373 109.081 40.9256 109.524 40.403C109.968 39.8804 110.3 39.2866 110.522 38.6215C110.3 37.9406 109.968 37.3389 109.524 36.8163C109.081 36.2937 108.566 35.882 107.981 35.5811C107.395 35.2803 106.769 35.1298 106.104 35.1298C105.471 35.1298 104.908 35.2803 104.418 35.5811C103.927 35.882 103.539 36.2937 103.254 36.8163C102.984 37.3389 102.85 37.9406 102.85 38.6215ZM118.174 31.6144L120.62 32.0894L123.043 31.6144V45.3912H118.174V31.6144ZM120.596 30.498C119.757 30.498 119.076 30.2921 118.554 29.8804C118.031 29.4528 117.77 28.8748 117.77 28.1464C117.77 27.4338 118.031 26.8637 118.554 26.4362C119.076 26.0086 119.757 25.7948 120.596 25.7948C121.467 25.7948 122.156 26.0086 122.663 26.4362C123.185 26.8637 123.447 27.4338 123.447 28.1464C123.447 28.8748 123.185 29.4528 122.663 29.8804C122.156 30.2921 121.467 30.498 120.596 30.498ZM133.788 45.7712C132.047 45.7712 130.526 45.4783 129.228 44.8923C127.929 44.2906 126.916 43.4513 126.187 42.3745C125.459 41.2819 125.095 40.0309 125.095 38.6215C125.095 37.1805 125.459 35.9216 126.187 34.8448C126.916 33.768 127.929 32.9287 129.228 32.327C130.526 31.7252 132.047 31.4243 133.788 31.4243C135.515 31.4243 137.027 31.7252 138.325 32.327C139.64 32.9287 140.661 33.768 141.389 34.8448C142.118 35.9216 142.482 37.1805 142.482 38.6215C142.482 40.0309 142.118 41.2819 141.389 42.3745C140.661 43.4513 139.64 44.2906 138.325 44.8923C137.027 45.4783 135.515 45.7712 133.788 45.7712ZM133.788 42.1845C134.58 42.1845 135.253 42.042 135.807 41.7569C136.378 41.4719 136.813 41.0602 137.114 40.5218C137.415 39.9834 137.565 39.35 137.565 38.6215C137.565 37.8614 137.415 37.2201 137.114 36.6975C136.813 36.1591 136.378 35.7474 135.807 35.4624C135.253 35.1773 134.58 35.0348 133.788 35.0348C132.997 35.0348 132.316 35.1773 131.746 35.4624C131.176 35.7474 130.74 36.1591 130.439 36.6975C130.138 37.2201 129.988 37.8535 129.988 38.5978C129.988 39.342 130.138 39.9834 130.439 40.5218C130.74 41.0602 131.176 41.4719 131.746 41.7569C132.316 42.042 132.997 42.1845 133.788 42.1845Z" fill="url(#paint1_linear_1_7799)"/>
<path d="M141.11 8.50588C140.695 8.50588 140.31 8.44129 139.956 8.31211C139.602 8.17731 139.296 7.99196 139.038 7.75606C138.78 7.51454 138.577 7.23371 138.431 6.91356C138.291 6.58779 138.221 6.23114 138.221 5.84359C138.221 5.46165 138.291 5.11061 138.431 4.79046C138.577 4.4647 138.78 4.18386 139.038 3.94796C139.296 3.70645 139.602 3.5211 139.956 3.39191C140.31 3.25711 140.695 3.18971 141.11 3.18971C141.526 3.18971 141.911 3.25711 142.265 3.39191C142.619 3.5211 142.925 3.70645 143.183 3.94796C143.441 4.18386 143.641 4.4647 143.781 4.79046C143.927 5.11061 144 5.46165 144 5.84359C144 6.23114 143.927 6.58779 143.781 6.91356C143.641 7.23371 143.441 7.51454 143.183 7.75606C142.925 7.99196 142.619 8.17731 142.265 8.31211C141.911 8.44129 141.526 8.50588 141.11 8.50588ZM141.11 7.92456C141.565 7.92456 141.961 7.83469 142.298 7.65496C142.635 7.47523 142.897 7.2309 143.082 6.92198C143.273 6.60745 143.368 6.24799 143.368 5.84359C143.368 5.4448 143.273 5.08814 143.082 4.77361C142.897 4.45908 142.635 4.21475 142.298 4.04064C141.961 3.86652 141.565 3.77946 141.11 3.77946C140.661 3.77946 140.265 3.86652 139.923 4.04064C139.586 4.21475 139.322 4.45908 139.131 4.77361C138.945 5.08814 138.853 5.4448 138.853 5.84359C138.853 6.24799 138.945 6.60745 139.131 6.92198C139.322 7.2309 139.586 7.47523 139.923 7.65496C140.265 7.83469 140.661 7.92456 141.11 7.92456ZM139.788 4.34394H140.622V7.31796H139.788V4.34394ZM141.363 6.28169H140.411V5.64981H141.296C141.408 5.64981 141.495 5.62173 141.557 5.56556C141.624 5.50378 141.658 5.41953 141.658 5.31281C141.658 5.21171 141.624 5.13308 141.557 5.07691C141.495 5.01513 141.408 4.98424 141.296 4.98424H140.411V4.34394H141.363C141.706 4.34394 141.981 4.4338 142.189 4.61354C142.402 4.79327 142.509 5.02636 142.509 5.31281C142.509 5.60488 142.402 5.84078 142.189 6.02051C141.981 6.19463 141.706 6.28169 141.363 6.28169ZM140.841 5.92784H141.7L142.602 7.31796H141.633L140.841 5.92784Z" fill="white"/>
<path d="M141.11 8.50588C140.695 8.50588 140.31 8.44129 139.956 8.31211C139.602 8.17731 139.296 7.99196 139.038 7.75606C138.78 7.51454 138.577 7.23371 138.431 6.91356C138.291 6.58779 138.221 6.23114 138.221 5.84359C138.221 5.46165 138.291 5.11061 138.431 4.79046C138.577 4.4647 138.78 4.18386 139.038 3.94796C139.296 3.70645 139.602 3.5211 139.956 3.39191C140.31 3.25711 140.695 3.18971 141.11 3.18971C141.526 3.18971 141.911 3.25711 142.265 3.39191C142.619 3.5211 142.925 3.70645 143.183 3.94796C143.441 4.18386 143.641 4.4647 143.781 4.79046C143.927 5.11061 144 5.46165 144 5.84359C144 6.23114 143.927 6.58779 143.781 6.91356C143.641 7.23371 143.441 7.51454 143.183 7.75606C142.925 7.99196 142.619 8.17731 142.265 8.31211C141.911 8.44129 141.526 8.50588 141.11 8.50588ZM141.11 7.92456C141.565 7.92456 141.961 7.83469 142.298 7.65496C142.635 7.47523 142.897 7.2309 143.082 6.92198C143.273 6.60745 143.368 6.24799 143.368 5.84359C143.368 5.4448 143.273 5.08814 143.082 4.77361C142.897 4.45908 142.635 4.21475 142.298 4.04064C141.961 3.86652 141.565 3.77946 141.11 3.77946C140.661 3.77946 140.265 3.86652 139.923 4.04064C139.586 4.21475 139.322 4.45908 139.131 4.77361C138.945 5.08814 138.853 5.4448 138.853 5.84359C138.853 6.24799 138.945 6.60745 139.131 6.92198C139.322 7.2309 139.586 7.47523 139.923 7.65496C140.265 7.83469 140.661 7.92456 141.11 7.92456ZM139.788 4.34394H140.622V7.31796H139.788V4.34394ZM141.363 6.28169H140.411V5.64981H141.296C141.408 5.64981 141.495 5.62173 141.557 5.56556C141.624 5.50378 141.658 5.41953 141.658 5.31281C141.658 5.21171 141.624 5.13308 141.557 5.07691C141.495 5.01513 141.408 4.98424 141.296 4.98424H140.411V4.34394H141.363C141.706 4.34394 141.981 4.4338 142.189 4.61354C142.402 4.79327 142.509 5.02636 142.509 5.31281C142.509 5.60488 142.402 5.84078 142.189 6.02051C141.981 6.19463 141.706 6.28169 141.363 6.28169ZM140.841 5.92784H141.7L142.602 7.31796H141.633L140.841 5.92784Z" fill="url(#paint2_linear_1_7799)"/>
<path d="M38.0215 43.8735L34.1153 39.8477L34.7917 33.6741L28.141 33.6905L24.6944 30.1382L39.7517 28.8615L38.0215 43.8735Z" fill="#D9D9D9"/>
<path d="M38.0215 43.8735L34.1153 39.8477L34.7917 33.6741L28.141 33.6905L24.6944 30.1382L39.7517 28.8615L38.0215 43.8735Z" fill="url(#paint3_linear_1_7799)"/>
<defs>
<linearGradient id="paint0_linear_1_7799" x1="49.5" y1="27" x2="39.9387" y2="-1.77986" gradientUnits="userSpaceOnUse">
<stop stop-color="#BFBFBF"/>
<stop offset="1" stop-color="white"/>
</linearGradient>
<linearGradient id="paint1_linear_1_7799" x1="94.1562" y1="50.3912" x2="84.5949" y2="21.6113" gradientUnits="userSpaceOnUse">
<stop stop-color="#BFBFBF"/>
<stop offset="1" stop-color="white"/>
</linearGradient>
<linearGradient id="paint2_linear_1_7799" x1="141.168" y1="11.5289" x2="136.183" y2="8.69561" gradientUnits="userSpaceOnUse">
<stop stop-color="#BFBFBF"/>
<stop offset="1" stop-color="white"/>
</linearGradient>
<linearGradient id="paint3_linear_1_7799" x1="38.0215" y1="43.8735" x2="46.6145" y2="34.7906" gradientUnits="userSpaceOnUse">
<stop stop-color="#16ADEC"/>
<stop offset="1" stop-color="#1464DB"/>
</linearGradient>
</defs>
</svg>
