<svg width="26" height="26" viewBox="0 0 26 26" fill="none" xmlns="http://www.w3.org/2000/svg">
<path d="M15.0797 0C18.6696 0 21.9196 1.45508 24.2721 3.80762L19.1656 8.91406C18.1201 7.86849 16.6752 7.22266 15.0797 7.22266C11.8887 7.22266 9.30237 9.80902 9.30237 13C9.30237 16.191 11.8887 18.7773 15.0797 18.7773C16.6752 18.7773 18.1201 18.1315 19.1656 17.0859L24.2721 22.1924C21.9196 24.5449 18.6696 26 15.0797 26C7.90001 26 2.07971 20.1797 2.07971 13C2.07971 5.8203 7.90001 3.06022e-07 15.0797 0Z" fill="#FF75CB"/>
<path fill-rule="evenodd" clip-rule="evenodd" d="M19.2631 17.1431L15.2225 13.0003L19.2631 8.85742C20.2972 9.91767 20.9368 11.3824 20.9368 13.0003C20.9368 14.6182 20.2972 16.0829 19.2631 17.1431Z" fill="#FF75CB"/>
</svg>
