<svg width="78" height="23" viewBox="0 0 78 23" fill="none" xmlns="http://www.w3.org/2000/svg">
<g clip-path="url(#clip0_1_12521)">
<path d="M0.0224167 8.78697C0.0224168 5.98174 0.0316351 3.32707 0.0131988 0.672397C0.0131988 0.186936 0.157608 -0.000489109 0.667648 -0.000489087C6.60072 0.0118013 12.5338 0.0118016 18.4669 0.00258423C18.9277 0.00258425 19.1029 0.180791 19.0998 0.626309C19.0875 3.2226 19.0875 5.8189 19.0752 8.41826C19.0752 8.46128 19.0138 8.50429 18.98 8.54731C15.0256 5.26584 2.90138 5.69907 0.0224167 8.78697Z" fill="#FFDD33"/>
<path d="M19.0881 17.0304C19.0881 17.8262 19.1034 18.5605 19.085 19.2918C19.0635 20.0845 18.4766 20.4624 17.8775 20.8004C16.4672 21.5931 14.9094 21.9557 13.3363 22.1462C9.83666 22.5732 6.34933 22.5425 2.93267 21.4978C2.70837 21.4303 2.48101 21.3627 2.26286 21.2766C0.333303 20.53 0.019905 20.0722 0.019905 18.0228C0.0199051 17.7002 0.0199051 17.3776 0.0199051 16.9966C2.91116 19.0798 6.1957 19.3163 9.53555 19.3256C12.86 19.3348 16.1231 19.089 19.0881 17.0304Z" fill="#FFDD33"/>
<path d="M19.0727 10.4858C19.0727 11.4383 19.1065 12.2249 19.0634 13.0053C19.0296 13.6352 18.5257 13.9547 18.0434 14.2497C16.7621 15.0332 15.3303 15.3988 13.8739 15.6047C10.5279 16.0717 7.18194 16.0871 3.86667 15.3066C3.52562 15.2268 3.17842 15.1499 2.84966 15.027C-0.36421 13.8257 -0.0753919 13.4355 0.0966701 10.5473C3.65467 13.8134 15.7666 13.6075 19.0727 10.4858Z" fill="#FFDD33"/>
</g>
<path d="M29.1439 17.9995H26.8284V5.049H35.0851V7.00549H29.1439V10.8287H34.5736V12.7134H29.1439V17.9995ZM36.1423 17.9995V8.48631H38.377V17.9995H36.1423ZM38.1347 6.88882C37.8954 7.12216 37.6022 7.23883 37.2552 7.23883C36.9082 7.23883 36.615 7.12216 36.3757 6.88882C36.1364 6.64949 36.0167 6.3623 36.0167 6.02724C36.0167 5.6862 36.1364 5.39901 36.3757 5.16567C36.615 4.92634 36.9082 4.80668 37.2552 4.80668C37.6022 4.80668 37.8954 4.92634 38.1347 5.16567C38.38 5.39901 38.5027 5.6862 38.5027 6.02724C38.5027 6.3623 38.38 6.64949 38.1347 6.88882ZM39.7933 17.9995V8.48631H41.9382V10.1197H41.9831C42.2463 9.54533 42.6293 9.09959 43.1319 8.78248C43.6404 8.46537 44.2537 8.30682 44.9717 8.30682C46.0127 8.30682 46.8205 8.62094 47.3948 9.24917C47.9752 9.8774 48.2654 10.745 48.2654 11.8518V17.9995H46.0307V12.3006C46.0307 11.6185 45.8691 11.098 45.5461 10.739C45.2289 10.38 44.7563 10.2005 44.128 10.2005C43.4878 10.2005 42.9763 10.4099 42.5934 10.8287C42.2164 11.2475 42.028 11.801 42.028 12.489V17.9995H39.7933ZM53.074 16.4648C53.7142 16.4648 54.2527 16.2764 54.6895 15.8994C55.1322 15.5165 55.3536 15.0408 55.3536 14.4724V13.7455L53.1548 13.8801C52.6163 13.916 52.1975 14.0506 51.8984 14.284C51.6052 14.5113 51.4586 14.8135 51.4586 15.1904C51.4586 15.5793 51.6052 15.8905 51.8984 16.1238C52.1975 16.3512 52.5894 16.4648 53.074 16.4648ZM52.4009 18.1521C51.4736 18.1521 50.7107 17.8858 50.1124 17.3533C49.5201 16.8208 49.2239 16.1298 49.2239 15.2802C49.2239 14.4366 49.535 13.7694 50.1573 13.2788C50.7855 12.7882 51.68 12.507 52.8407 12.4352L55.3536 12.2916V11.6095C55.3536 11.1129 55.1951 10.727 54.878 10.4518C54.5668 10.1766 54.1331 10.0389 53.5766 10.0389C53.0561 10.0389 52.6313 10.1556 52.3022 10.389C51.9731 10.6223 51.7727 10.9394 51.7009 11.3403H49.6278C49.6756 10.4368 50.0615 9.70388 50.7855 9.14147C51.5154 8.57307 52.4757 8.28887 53.6664 8.28887C54.8451 8.28887 55.7874 8.57606 56.4934 9.15044C57.2054 9.72483 57.5614 10.4907 57.5614 11.448V17.9995H55.4075V16.4828H55.3626C55.0934 16.9914 54.6865 17.3982 54.142 17.7033C53.5976 18.0025 53.0172 18.1521 52.4009 18.1521ZM58.9058 17.9995V8.48631H61.0508V10.1197H61.0956C61.3589 9.54533 61.7418 9.09959 62.2444 8.78248C62.753 8.46537 63.3662 8.30682 64.0842 8.30682C65.1253 8.30682 65.933 8.62094 66.5074 9.24917C67.0878 9.8774 67.3779 10.745 67.3779 11.8518V17.9995H65.1432V12.3006C65.1432 11.6185 64.9817 11.098 64.6586 10.739C64.3415 10.38 63.8688 10.2005 63.2406 10.2005C62.6004 10.2005 62.0888 10.4099 61.7059 10.8287C61.329 11.2475 61.1405 11.801 61.1405 12.489V17.9995H58.9058ZM68.5429 11.2146C68.5429 10.3411 68.8959 9.63508 69.6019 9.0966C70.3079 8.55811 71.2383 8.28887 72.393 8.28887C73.5059 8.28887 74.4093 8.5641 75.1034 9.11454C75.8034 9.65901 76.1684 10.371 76.1983 11.2505H74.1162C74.0803 10.8377 73.9067 10.5146 73.5956 10.2813C73.2845 10.0479 72.8687 9.93124 72.3481 9.93124C71.8575 9.93124 71.4626 10.0389 71.1635 10.2543C70.8643 10.4637 70.7147 10.742 70.7147 11.089C70.7147 11.6155 71.1695 11.9894 72.0789 12.2108L73.7751 12.5878C74.7264 12.8091 75.4055 13.1203 75.8124 13.5211C76.2192 13.922 76.4227 14.4754 76.4227 15.1815C76.4227 16.0789 76.0457 16.8059 75.2918 17.3623C74.538 17.9128 73.5597 18.188 72.3571 18.188C71.1725 18.188 70.2181 17.9187 69.4942 17.3803C68.7762 16.8358 68.3783 16.1088 68.3005 15.1994H70.4993C70.5652 15.6362 70.7626 15.9712 71.0917 16.2046C71.4267 16.4379 71.8755 16.5546 72.4379 16.5546C72.9824 16.5546 73.4101 16.4529 73.7213 16.2494C74.0384 16.04 74.1969 15.7588 74.1969 15.4058C74.1969 15.1306 74.0982 14.9122 73.9008 14.7507C73.7093 14.5831 73.3832 14.4395 72.9225 14.3199L71.1904 13.916C69.4254 13.5032 68.5429 12.6027 68.5429 11.2146Z" fill="white"/>
<defs>
<clipPath id="clip0_1_12521">
<rect width="22.4049" height="19.0989" fill="white" transform="translate(19.099 -0.000488281) rotate(90)"/>
</clipPath>
</defs>
</svg>
