<svg width="18" height="12" viewBox="0 0 18 12" fill="none" xmlns="http://www.w3.org/2000/svg">
<path opacity="0.3" d="M6.3 0.857143C6.3 0.629814 6.39482 0.411797 6.5636 0.251051C6.73239 0.090306 6.9613 0 7.2 0H17.1C17.3387 0 17.5676 0.090306 17.7364 0.251051C17.9052 0.411797 18 0.629814 18 0.857143C18 1.08447 17.9052 1.30249 17.7364 1.46323C17.5676 1.62398 17.3387 1.71429 17.1 1.71429H7.2C6.9613 1.71429 6.73239 1.62398 6.5636 1.46323C6.39482 1.30249 6.3 1.08447 6.3 0.857143ZM17.1 5.14286H0.9C0.661305 5.14286 0.432387 5.23316 0.263604 5.39391C0.0948211 5.55465 0 5.77267 0 6C0 6.22733 0.0948211 6.44535 0.263604 6.60609C0.432387 6.76684 0.661305 6.85714 0.9 6.85714H17.1C17.3387 6.85714 17.5676 6.76684 17.7364 6.60609C17.9052 6.44535 18 6.22733 18 6C18 5.77267 17.9052 5.55465 17.7364 5.39391C17.5676 5.23316 17.3387 5.14286 17.1 5.14286ZM10.8 10.2857H0.9C0.661305 10.2857 0.432387 10.376 0.263604 10.5368C0.0948211 10.6975 0 10.9155 0 11.1429C0 11.3702 0.0948211 11.5882 0.263604 11.7489C0.432387 11.9097 0.661305 12 0.9 12H10.8C11.0387 12 11.2676 11.9097 11.4364 11.7489C11.6052 11.5882 11.7 11.3702 11.7 11.1429C11.7 10.9155 11.6052 10.6975 11.4364 10.5368C11.2676 10.376 11.0387 10.2857 10.8 10.2857Z" fill="white"/>
</svg>
