<svg width="505" height="123" viewBox="0 0 505 123" fill="none" xmlns="http://www.w3.org/2000/svg">
<path d="M505.002 113C505.002 118.523 500.525 123 495.002 123L10.002 123C4.4791 123 0.00195273 118.523 0.00195225 113L0.00194325 10C0.00194276 4.47715 4.47908 -2.01927e-06 10.0019 -2.50209e-06L352.385 -1.9166e-06C355.393 -2.17959e-06 358.332 0.904523 360.82 2.5961L390.684 22.9039C393.172 24.5955 396.111 25.5 399.119 25.5L465.509 25.5C467.461 25.5 469.371 26.0717 471.003 27.1444L500.496 46.5372C503.309 48.3865 505.002 51.5267 505.002 54.8927L505.002 113Z" fill="#D9D9D9"/>
<path d="M505.002 113C505.002 118.523 500.525 123 495.002 123L10.002 123C4.4791 123 0.00195273 118.523 0.00195225 113L0.00194325 10C0.00194276 4.47715 4.47908 -2.01927e-06 10.0019 -2.50209e-06L352.385 -1.9166e-06C355.393 -2.17959e-06 358.332 0.904523 360.82 2.5961L390.684 22.9039C393.172 24.5955 396.111 25.5 399.119 25.5L465.509 25.5C467.461 25.5 469.371 26.0717 471.003 27.1444L500.496 46.5372C503.309 48.3865 505.002 51.5267 505.002 54.8927L505.002 113Z" fill="url(#paint0_linear_145_3958)"/>
<path d="M495.002 122.5L10.002 122.5C4.75524 122.5 0.501953 118.247 0.501952 113L0.501943 10C0.501943 4.75334 4.75523 0.500044 10.0019 0.500043L352.385 0.500013C355.293 0.500013 358.134 1.37459 360.539 3.00978L390.403 23.3174C392.974 25.0653 396.011 26 399.119 26L465.509 26C467.364 26 469.179 26.5434 470.729 27.5625L500.222 46.9551C502.893 48.7119 504.502 51.695 504.502 54.8926L504.502 113C504.502 118.247 500.249 122.5 495.002 122.5Z" stroke="url(#paint1_linear_145_3958)" stroke-opacity="0.45"/>
<defs>
<linearGradient id="paint0_linear_145_3958" x1="505.002" y1="123" x2="5.92148" y2="-20.5766" gradientUnits="userSpaceOnUse">
<stop stop-color="#16ADEC"/>
<stop offset="1" stop-color="#1464DB"/>
</linearGradient>
<linearGradient id="paint1_linear_145_3958" x1="505.002" y1="57.9455" x2="93.0928" y2="57.9455" gradientUnits="userSpaceOnUse">
<stop stop-color="white"/>
<stop offset="1" stop-color="#999999"/>
</linearGradient>
</defs>
</svg>
