<svg width="13" height="24" viewBox="0 0 13 24" fill="none" xmlns="http://www.w3.org/2000/svg">
<path d="M0.825817 12.8979L9.91557 23.1331C10.1258 23.37 10.4065 23.5005 10.7057 23.5005C11.0049 23.5005 11.2856 23.37 11.4958 23.1331L12.1652 22.3795C12.6008 21.8884 12.6008 21.0904 12.1652 20.6001L4.53233 12.0053L12.1737 3.4009C12.3839 3.16398 12.5 2.84815 12.5 2.51138C12.5 2.17424 12.3839 1.85841 12.1737 1.62131L11.5043 0.867924C11.2939 0.631006 11.0134 0.500488 10.7142 0.500488C10.4149 0.500488 10.1343 0.631006 9.92404 0.867924L0.825817 11.1124C0.615084 11.35 0.499339 11.6674 0.500003 12.0047C0.499339 12.3433 0.615084 12.6605 0.825817 12.8979Z" fill="white"/>
</svg>
