<svg width="13" height="24" viewBox="0 0 13 24" fill="none" xmlns="http://www.w3.org/2000/svg">
<path d="M12.1742 11.103L3.08443 0.867924C2.87419 0.631007 2.59355 0.500488 2.2943 0.500488C1.99506 0.500488 1.71441 0.631007 1.50418 0.867924L0.834782 1.6215C0.399201 2.11253 0.399201 2.91061 0.834782 3.4009L8.46767 11.9957L0.826316 20.6001C0.616081 20.837 0.500004 21.1528 0.500004 21.4896C0.500004 21.8267 0.616081 22.1426 0.826316 22.3797L1.49571 23.1331C1.70611 23.37 1.98659 23.5005 2.28584 23.5005C2.58508 23.5005 2.86573 23.37 3.07596 23.1331L12.1742 12.8886C12.3849 12.6509 12.5007 12.3336 12.5 11.9963C12.5007 11.6576 12.3849 11.3405 12.1742 11.103Z" fill="white"/>
</svg>
