<svg width="37" height="266" viewBox="0 0 37 266" fill="none" xmlns="http://www.w3.org/2000/svg">
<g opacity="0.03">
<path d="M0.783527 -1.56531e-06L35.8099 -3.42613e-08L35.8099 13.1288C35.8099 15.3822 35.418 17.3417 34.6342 19.0073C33.8831 20.6729 32.8053 21.963 31.401 22.8774C30.0294 23.7918 28.4128 24.2491 26.5512 24.2491C24.853 24.2491 23.3507 23.7918 22.0443 22.8774C20.738 21.963 19.7092 20.6729 18.9581 19.0073C18.2396 17.3417 17.8803 15.3822 17.8803 13.1288L17.8803 4.26195L20.2318 4.26196L20.2318 14.2555C20.2318 16.5743 19.8399 18.5991 19.056 20.33C18.2722 22.0609 17.1618 23.3999 15.7249 24.347C14.2879 25.3268 12.5896 25.8167 10.6301 25.8167C8.67059 25.8167 6.93968 25.3268 5.43738 24.347C3.96775 23.3999 2.82469 22.0609 2.00823 20.33C1.19176 18.5991 0.783527 16.5743 0.783527 14.2555L0.783527 -1.56531e-06ZM4.11471 3.77207L4.11471 14.2555C4.11471 16.6396 4.68624 18.5175 5.82929 19.8891C6.97234 21.2608 8.57262 21.9466 10.6301 21.9466C12.6876 21.9466 14.2879 21.2608 15.4309 19.8891C16.574 18.5175 17.1455 16.6396 17.1455 14.2555L17.1455 3.28219L20.4767 3.2822L20.4767 13.1288C20.4767 15.3822 21.0156 17.1621 22.0933 18.4685C23.171 19.7748 24.657 20.428 26.5512 20.428C28.3801 20.428 29.8171 19.7748 30.8622 18.4685C31.9399 17.1621 32.4788 15.3822 32.4788 13.1288L32.4788 3.77208L4.11471 3.77207Z" fill="url(#paint0_linear_1_15663)"/>
<path d="M9.25845 59.9131L6.66209 62.6564C4.60459 61.1541 2.97166 59.1783 1.76328 56.7289C0.587575 54.3121 -0.000280731 51.6504 -0.000280604 48.7438C-0.000280494 46.2291 0.456938 43.894 1.37138 41.7385C2.28582 39.6157 3.55951 37.7542 5.19245 36.1539C6.85804 34.5863 8.80123 33.3616 11.022 32.4798C13.2428 31.598 15.6595 31.1571 18.2722 31.1571C20.8849 31.1571 23.3017 31.598 25.5225 32.4798C27.7759 33.3942 29.7191 34.6516 31.352 36.2519C33.0176 37.8521 34.3076 39.7137 35.2221 41.8365C36.1365 43.992 36.5937 46.3271 36.5937 48.8418C36.5937 51.7484 35.9896 54.3938 34.7812 56.7778C33.6055 59.1946 31.9889 61.1541 29.9314 62.6564L27.335 59.9131C29.1312 58.7047 30.5519 57.1697 31.597 55.3082C32.642 53.4467 33.1646 51.2912 33.1646 48.8418C33.1646 46.2291 32.5114 43.8777 31.2051 41.7875C29.9314 39.73 28.1678 38.0971 25.9144 36.8887C23.6936 35.6804 21.1462 35.0762 18.2722 35.0762C15.4309 35.0762 12.8836 35.6804 10.6301 36.8887C8.40932 38.0971 6.64576 39.73 5.33941 41.7875C4.06572 43.8777 3.42888 46.2291 3.42888 48.8418C3.42888 51.2912 3.95142 53.4467 4.99649 55.3082C6.04157 57.1697 7.46222 58.7047 9.25845 59.9131Z" fill="url(#paint1_linear_1_15663)"/>
<path d="M-0.000281957 79.7169C-0.00028185 77.2675 0.554913 75.0793 1.66531 73.1525C2.7757 71.2256 4.29433 69.707 6.22119 68.5966C8.14805 67.5189 10.3525 66.98 12.8346 66.98C15.3166 66.98 17.5211 67.5189 19.448 68.5966C21.3748 69.707 22.8934 71.2256 24.0038 73.1525C25.1142 75.0793 25.6694 77.2675 25.6694 79.7169C25.6694 82.1989 25.1142 84.3871 24.0038 86.2813C22.8934 88.2081 21.3748 89.7104 19.448 90.7882C17.5211 91.8985 15.3166 92.4537 12.8346 92.4537C10.3525 92.4537 8.14805 91.8985 6.22119 90.7882C4.29433 89.7104 2.7757 88.2081 1.66531 86.2813C0.554913 84.3871 -0.000282066 82.1989 -0.000281957 79.7169ZM3.18394 79.7169C3.18394 81.4804 3.59217 83.0317 4.40863 84.3707C5.2251 85.7097 6.35183 86.7548 7.78881 87.5059C9.25845 88.2571 10.9404 88.6327 12.8346 88.6327C14.7288 88.6327 16.3944 88.2571 17.8313 87.506C19.301 86.7548 20.444 85.7097 21.2605 84.3707C22.077 83.0317 22.4852 81.4804 22.4852 79.7169C22.4852 77.9533 22.077 76.402 21.2605 75.063C20.444 73.724 19.301 72.6789 17.8313 71.9278C16.3944 71.1766 14.7288 70.801 12.8346 70.801C10.9404 70.801 9.25845 71.1766 7.78881 71.9278C6.35183 72.6789 5.2251 73.724 4.40863 75.063C3.59217 76.402 3.18394 77.9533 3.18394 79.7169Z" fill="url(#paint2_linear_1_15663)"/>
<path d="M0.783522 122.349L0.783522 118.773L7.34791 118.773L7.3969 118.724L12.0997 118.724C14.1572 118.724 15.9535 118.348 17.4884 117.597C19.056 116.846 20.2807 115.785 21.1625 114.413C22.0443 113.074 22.4852 111.523 22.4852 109.759C22.4852 108.028 22.0606 106.493 21.2115 105.154C20.395 103.815 19.252 102.77 17.7824 102.019C16.3454 101.268 14.6961 100.892 12.8346 100.892C10.973 100.892 9.30744 101.268 7.83779 102.019C6.40081 102.803 5.25776 103.864 4.40863 105.203C3.59217 106.575 3.18394 108.143 3.18394 109.906C3.18394 111.572 3.52685 113.074 4.21268 114.413C4.89851 115.785 5.84562 116.895 7.05399 117.744C8.29502 118.593 9.68301 119.083 11.218 119.214L10.2382 119.9C8.31134 120.161 6.56411 119.867 4.99649 119.018C3.46154 118.169 2.23683 116.911 1.32239 115.246C0.440604 113.613 -0.000283356 111.702 -0.00028326 109.514C-0.000283154 107.097 0.554912 104.942 1.66531 103.048C2.7757 101.186 4.29433 99.7166 6.22119 98.6388C8.14805 97.5938 10.3525 97.0712 12.8346 97.0712C15.284 97.0712 17.4721 97.5938 19.399 98.6388C21.3258 99.7166 22.8445 101.17 23.9548 102.999C25.0979 104.86 25.6694 106.967 25.6694 109.318C25.6694 111.082 25.3265 112.682 24.6407 114.119C23.9875 115.589 23.0567 116.813 21.8484 117.793C20.64 118.773 19.2193 119.393 17.5864 119.655L17.5864 118.724L36.0549 118.724L36.0549 122.349L0.783522 122.349Z" fill="url(#paint3_linear_1_15663)"/>
<path d="M7.64184 149.577L5.24143 152.125C3.60849 150.851 2.31848 149.316 1.37138 147.52C0.456933 145.723 -0.000284753 143.666 -0.000284651 141.347C-0.00028454 138.8 0.55491 136.514 1.66531 134.489C2.7757 132.497 4.29433 130.929 6.22119 129.786C8.14805 128.643 10.3525 128.071 12.8346 128.071C15.3166 128.071 17.5211 128.61 19.4479 129.688C21.3748 130.798 22.8934 132.317 24.0038 134.244C25.1142 136.171 25.6694 138.359 25.6694 140.808C25.6694 143.16 25.1142 145.234 24.0038 147.03C22.9261 148.859 21.4401 150.296 19.5459 151.341C17.6517 152.386 15.4636 152.908 12.9815 152.908L12.6876 152.908L12.6876 149.185L12.9815 149.185C14.8757 149.185 16.525 148.81 17.9293 148.059C19.3663 147.34 20.4767 146.344 21.2605 145.07C22.077 143.829 22.4852 142.409 22.4852 140.808C22.4852 139.045 22.077 137.493 21.2605 136.154C20.444 134.815 19.3173 133.77 17.8803 133.019C16.4433 132.268 14.7778 131.893 12.8836 131.893C10.9894 131.893 9.30743 132.301 7.83779 133.117C6.36815 133.934 5.2251 135.044 4.40863 136.448C3.59216 137.885 3.18393 139.535 3.18393 141.396C3.18393 144.793 4.6699 147.52 7.64184 149.577ZM11.5609 152.908L11.5609 131.109L14.5491 131.109L14.5491 152.125L12.9815 152.908L11.5609 152.908Z" fill="url(#paint4_linear_1_15663)"/>
<path d="M6.46613 166.62L9.11148 169.412C7.93577 170.425 6.92335 171.551 6.07422 172.793C5.2251 174.034 4.57193 175.373 4.1147 176.81C3.65748 178.279 3.42887 179.863 3.42887 181.561C3.42887 183.456 3.7228 185.137 4.31066 186.607C4.89851 188.077 5.71498 189.236 6.76005 190.085C7.83779 190.934 9.09515 191.359 10.5321 191.359C12.361 191.359 13.7817 190.591 14.7941 189.057C15.8392 187.522 16.6393 184.909 17.1945 181.218C17.6844 178.018 18.3212 175.454 19.105 173.527C19.9215 171.633 20.9339 170.261 22.1423 169.412C23.3507 168.563 24.804 168.139 26.5022 168.139C28.4944 168.139 30.2416 168.694 31.7439 169.804C33.2789 170.915 34.4709 172.45 35.3201 174.409C36.1692 176.369 36.5937 178.622 36.5937 181.169C36.5937 184.076 36.0222 186.64 34.8792 188.861C33.7361 191.114 32.1522 193.106 30.1273 194.837L27.531 192.094C29.2619 190.689 30.6335 189.138 31.646 187.44C32.6584 185.774 33.1646 183.684 33.1646 181.169C33.1646 178.491 32.5604 176.303 31.352 174.605C30.1763 172.907 28.576 172.058 26.5512 172.058C25.5061 172.058 24.608 172.368 23.8569 172.988C23.1384 173.609 22.5342 174.621 22.0443 176.026C21.5544 177.43 21.1299 179.292 20.7706 181.61C20.2807 184.942 19.5949 187.603 18.7131 189.595C17.864 191.588 16.7699 193.025 15.4309 193.906C14.0919 194.821 12.4753 195.278 10.5811 195.278C8.49096 195.278 6.64575 194.69 5.04548 193.514C3.47786 192.371 2.23683 190.771 1.32239 188.714C0.440601 186.656 -0.000286528 184.272 -0.000286409 181.561C-0.000286272 178.426 0.571239 175.617 1.71429 173.135C2.85735 170.686 4.44129 168.514 6.46613 166.62Z" fill="url(#paint5_linear_1_15663)"/>
<path d="M0.783518 214.539L0.783518 208.856C0.783518 207.158 1.24074 205.836 2.15518 204.888C3.10228 203.974 4.42496 203.517 6.12321 203.517L31.9399 203.517L31.9399 207.142L6.41714 207.142C5.63333 207.142 5.01281 207.354 4.55559 207.779C4.13103 208.203 3.91875 208.824 3.91875 209.64L3.91875 214.539L0.783518 214.539ZM21.7994 214.196L21.7994 198.52L24.8856 198.52L24.8856 214.196L21.7994 214.196Z" fill="url(#paint6_linear_1_15663)"/>
<path d="M0.783517 241.316L0.783517 237.74L5.48636 237.74L6.85803 237.691L24.8856 237.691L24.8856 241.316L0.783517 241.316ZM11.218 238.181L10.1892 238.916C8.22969 239.079 6.48246 238.736 4.9475 237.887C3.41254 237.038 2.20417 235.829 1.32239 234.262C0.440599 232.727 -0.000288568 230.947 -0.000288479 228.922C-0.000288352 226.015 0.865164 223.68 2.59607 221.917C4.32698 220.186 6.82537 219.32 10.0912 219.32L24.8856 219.32L24.8856 222.945L10.4831 222.945C8.09906 222.945 6.2865 223.517 5.04547 224.66C3.80444 225.836 3.18393 227.469 3.18393 229.559C3.18393 231.029 3.51052 232.384 4.16369 233.625C4.84952 234.899 5.79662 235.944 7.00499 236.76C8.21336 237.577 9.61769 238.05 11.218 238.181Z" fill="url(#paint7_linear_1_15663)"/>
<path d="M0.783515 272.327L0.783516 268.751L7.34791 268.751L7.3969 268.702L12.0997 268.702C14.1572 268.702 15.9535 268.326 17.4884 267.575C19.056 266.824 20.2807 265.763 21.1625 264.391C22.0443 263.052 22.4852 261.501 22.4852 259.737C22.4852 258.006 22.0606 256.471 21.2115 255.132C20.395 253.793 19.252 252.748 17.7824 251.997C16.3454 251.246 14.6961 250.87 12.8346 250.87C10.973 250.87 9.30743 251.246 7.83779 251.997C6.40081 252.781 5.25775 253.842 4.40863 255.181C3.59216 256.553 3.18393 258.12 3.18393 259.884C3.18393 261.55 3.52684 263.052 4.21268 264.391C4.89851 265.763 5.84561 266.873 7.05398 267.722C8.29501 268.571 9.683 269.061 11.218 269.192L10.2382 269.878C8.31134 270.139 6.5641 269.845 4.99648 268.996C3.46153 268.147 2.23682 266.889 1.32238 265.224C0.440597 263.591 -0.000289911 261.68 -0.000289816 259.492C-0.00028971 257.075 0.554905 254.92 1.6653 253.026C2.7757 251.164 4.29432 249.694 6.22118 248.617C8.14805 247.572 10.3525 247.049 12.8346 247.049C15.284 247.049 17.4721 247.572 19.399 248.617C21.3258 249.694 22.8444 251.148 23.9548 252.977C25.0979 254.838 25.6694 256.945 25.6694 259.296C25.6694 261.06 25.3265 262.66 24.6407 264.097C23.9875 265.567 23.0567 266.791 21.8484 267.771C20.64 268.751 19.2193 269.371 17.5864 269.633L17.5864 268.702L36.0549 268.702L36.0549 272.327L0.783515 272.327Z" fill="url(#paint8_linear_1_15663)"/>
<path d="M0.783515 282.801L0.783515 279.176L24.8856 279.176L24.8856 282.801L0.783515 282.801ZM31.352 280.989C31.352 280.27 31.597 279.65 32.0868 279.127C32.6094 278.605 33.2299 278.343 33.9484 278.343C34.6995 278.343 35.3201 278.605 35.8099 279.127C36.3325 279.65 36.5937 280.27 36.5937 280.989C36.5937 281.74 36.3325 282.36 35.8099 282.85C35.3201 283.373 34.6995 283.634 33.9484 283.634C33.2299 283.634 32.6094 283.373 32.0868 282.85C31.597 282.36 31.352 281.74 31.352 280.989Z" fill="url(#paint9_linear_1_15663)"/>
<path d="M-0.000291642 301.263C-0.000291534 298.814 0.554903 296.626 1.6653 294.699C2.77569 292.772 4.29432 291.253 6.22118 290.143C8.14804 289.065 10.3525 288.526 12.8346 288.526C15.3166 288.526 17.5211 289.065 19.4479 290.143C21.3748 291.253 22.8934 292.772 24.0038 294.699C25.1142 296.626 25.6694 298.814 25.6694 301.263C25.6694 303.745 25.1142 305.933 24.0038 307.828C22.8934 309.754 21.3748 311.257 19.4479 312.334C17.5211 313.445 15.3166 314 12.8346 314C10.3525 314 8.14804 313.445 6.22118 312.334C4.29432 311.257 2.77569 309.754 1.6653 307.828C0.554903 305.933 -0.00029175 303.745 -0.000291642 301.263ZM3.18393 301.263C3.18393 303.027 3.59216 304.578 4.40862 305.917C5.22509 307.256 6.35182 308.301 7.7888 309.052C9.25844 309.803 10.9404 310.179 12.8346 310.179C14.7288 310.179 16.3944 309.803 17.8313 309.052C19.301 308.301 20.444 307.256 21.2605 305.917C22.077 304.578 22.4852 303.027 22.4852 301.263C22.4852 299.5 22.077 297.948 21.2605 296.609C20.444 295.27 19.301 294.225 17.8313 293.474C16.3944 292.723 14.7288 292.347 12.8346 292.347C10.9404 292.347 9.25844 292.723 7.7888 293.474C6.35182 294.225 5.22509 295.27 4.40863 296.609C3.59216 297.948 3.18393 299.5 3.18393 301.263Z" fill="url(#paint10_linear_1_15663)"/>
</g>
<defs>
<linearGradient id="paint0_linear_1_15663" x1="-13.7122" y1="156.122" x2="59.8424" y2="137.657" gradientUnits="userSpaceOnUse">
<stop stop-color="#767676"/>
<stop offset="1" stop-color="white"/>
</linearGradient>
<linearGradient id="paint1_linear_1_15663" x1="-13.7122" y1="156.122" x2="59.8424" y2="137.657" gradientUnits="userSpaceOnUse">
<stop stop-color="#767676"/>
<stop offset="1" stop-color="white"/>
</linearGradient>
<linearGradient id="paint2_linear_1_15663" x1="-13.7122" y1="156.122" x2="59.8424" y2="137.657" gradientUnits="userSpaceOnUse">
<stop stop-color="#767676"/>
<stop offset="1" stop-color="white"/>
</linearGradient>
<linearGradient id="paint3_linear_1_15663" x1="-13.7122" y1="156.122" x2="59.8424" y2="137.657" gradientUnits="userSpaceOnUse">
<stop stop-color="#767676"/>
<stop offset="1" stop-color="white"/>
</linearGradient>
<linearGradient id="paint4_linear_1_15663" x1="-13.7122" y1="156.122" x2="59.8424" y2="137.657" gradientUnits="userSpaceOnUse">
<stop stop-color="#767676"/>
<stop offset="1" stop-color="white"/>
</linearGradient>
<linearGradient id="paint5_linear_1_15663" x1="-13.7122" y1="156.122" x2="59.8424" y2="137.657" gradientUnits="userSpaceOnUse">
<stop stop-color="#767676"/>
<stop offset="1" stop-color="white"/>
</linearGradient>
<linearGradient id="paint6_linear_1_15663" x1="-13.7122" y1="156.122" x2="59.8424" y2="137.657" gradientUnits="userSpaceOnUse">
<stop stop-color="#767676"/>
<stop offset="1" stop-color="white"/>
</linearGradient>
<linearGradient id="paint7_linear_1_15663" x1="-13.7122" y1="156.122" x2="59.8424" y2="137.657" gradientUnits="userSpaceOnUse">
<stop stop-color="#767676"/>
<stop offset="1" stop-color="white"/>
</linearGradient>
<linearGradient id="paint8_linear_1_15663" x1="-13.7122" y1="156.122" x2="59.8424" y2="137.657" gradientUnits="userSpaceOnUse">
<stop stop-color="#767676"/>
<stop offset="1" stop-color="white"/>
</linearGradient>
<linearGradient id="paint9_linear_1_15663" x1="-13.7122" y1="156.122" x2="59.8424" y2="137.657" gradientUnits="userSpaceOnUse">
<stop stop-color="#767676"/>
<stop offset="1" stop-color="white"/>
</linearGradient>
<linearGradient id="paint10_linear_1_15663" x1="-13.7122" y1="156.122" x2="59.8424" y2="137.657" gradientUnits="userSpaceOnUse">
<stop stop-color="#767676"/>
<stop offset="1" stop-color="white"/>
</linearGradient>
</defs>
</svg>
