<svg width="68" height="24" viewBox="0 0 68 24" fill="none" xmlns="http://www.w3.org/2000/svg">
<path d="M6.40639 6.92348L6.59482 6.49122C7.23767 6.506 7.766 6.60575 8.17979 6.79048C8.60097 6.96782 8.91501 7.21905 9.12191 7.54417C9.3288 7.86191 9.43225 8.23136 9.43225 8.65254C9.43225 9.10328 9.3288 9.50599 9.12191 9.86067C8.91501 10.208 8.60467 10.4851 8.19087 10.692C7.78447 10.8915 7.27462 10.9912 6.66132 10.9912H0.520935L1.16379 6.72398L0.520935 2.67842H6.43965C7.20812 2.67842 7.80664 2.85945 8.23521 3.22152C8.66378 3.5762 8.87807 4.07127 8.87807 4.70674C8.87807 5.05403 8.79678 5.38654 8.63422 5.70427C8.47166 6.02201 8.20935 6.29171 7.84728 6.51339C7.4926 6.72767 7.0123 6.86437 6.40639 6.92348ZM2.7931 10.4592L1.9064 9.38407H6.04063C6.37314 9.38407 6.63176 9.30279 6.81649 9.14023C7.00122 8.97767 7.09359 8.7523 7.09359 8.46412C7.09359 8.17594 6.99383 7.94688 6.79432 7.77693C6.59482 7.59959 6.29925 7.51092 5.90763 7.51092H2.49384V5.93703H5.59728C5.86329 5.93703 6.08497 5.85945 6.26231 5.70427C6.44703 5.54171 6.5394 5.32373 6.5394 5.05033C6.5394 4.82866 6.46181 4.64762 6.30664 4.50723C6.15147 4.35945 5.92979 4.28556 5.64162 4.28556H1.91748L2.7931 3.21044L3.35837 6.72398L2.7931 10.4592ZM19.761 7.51092C19.6797 8.24245 19.4285 8.8853 19.0073 9.43949C18.5861 9.98629 18.0319 10.4112 17.3447 10.7141C16.6649 11.0171 15.8817 11.1686 14.995 11.1686C14.027 11.1686 13.1809 10.9875 12.4568 10.6254C11.7327 10.2634 11.1674 9.75722 10.761 9.10698C10.362 8.45673 10.1625 7.69934 10.1625 6.83481C10.1625 5.97028 10.362 5.21289 10.761 4.56265C11.1674 3.9124 11.7327 3.40625 12.4568 3.04418C13.1809 2.68211 14.027 2.50108 14.995 2.50108C15.8817 2.50108 16.6649 2.65255 17.3447 2.95551C18.0319 3.25846 18.5861 3.68704 19.0073 4.24122C19.4285 4.78802 19.6797 5.42718 19.761 6.15871H17.4556C17.3817 5.80403 17.2376 5.50477 17.0233 5.26092C16.809 5.00969 16.5282 4.81758 16.1809 4.68457C15.841 4.55157 15.4457 4.48506 14.995 4.48506C14.4777 4.48506 14.0307 4.58112 13.6539 4.77324C13.277 4.95797 12.9888 5.22767 12.7893 5.58235C12.5898 5.92964 12.4901 6.34713 12.4901 6.83481C12.4901 7.3225 12.5898 7.74368 12.7893 8.09836C12.9888 8.44565 13.277 8.71535 13.6539 8.90747C14.0307 9.0922 14.4777 9.18456 14.995 9.18456C15.4457 9.18456 15.841 9.12176 16.1809 8.99614C16.5282 8.87052 16.809 8.6821 17.0233 8.43087C17.2376 8.17964 17.3817 7.87299 17.4556 7.51092H19.761ZM24.4568 11.1686C23.644 11.1686 22.9346 11.0319 22.3287 10.7585C21.7228 10.4777 21.2499 10.086 20.91 9.58358C20.5701 9.07373 20.4001 8.48998 20.4001 7.83235C20.4001 7.15994 20.5701 6.5725 20.91 6.07004C21.2499 5.56757 21.7228 5.17595 22.3287 4.89516C22.9346 4.61437 23.644 4.47398 24.4568 4.47398C25.2622 4.47398 25.9678 4.61437 26.5738 4.89516C27.1871 5.17595 27.6637 5.56757 28.0036 6.07004C28.3435 6.5725 28.5134 7.15994 28.5134 7.83235C28.5134 8.48998 28.3435 9.07373 28.0036 9.58358C27.6637 10.086 27.1871 10.4777 26.5738 10.7585C25.9678 11.0319 25.2622 11.1686 24.4568 11.1686ZM24.4568 9.49491C24.8262 9.49491 25.1403 9.42841 25.3989 9.2954C25.6649 9.1624 25.8681 8.97028 26.0085 8.71905C26.1489 8.46782 26.2191 8.17225 26.2191 7.83235C26.2191 7.47767 26.1489 7.17841 26.0085 6.93457C25.8681 6.68334 25.6649 6.49122 25.3989 6.35821C25.1403 6.22521 24.8262 6.15871 24.4568 6.15871C24.0873 6.15871 23.7696 6.22521 23.5036 6.35821C23.2376 6.49122 23.0344 6.68334 22.894 6.93457C22.7536 7.17841 22.6834 7.47398 22.6834 7.82127C22.6834 8.16856 22.7536 8.46782 22.894 8.71905C23.0344 8.97028 23.2376 9.1624 23.5036 9.2954C23.7696 9.42841 24.0873 9.49491 24.4568 9.49491ZM35.2301 10.9912L34.9308 8.61929L35.3187 7.84343L34.9419 6.86806L35.4739 2.45674H37.8236L37.1697 7.65501L37.5687 10.9912H35.2301ZM35.7177 7.83235C35.6143 8.49737 35.4074 9.08112 35.0971 9.58358C34.7941 10.086 34.4062 10.4777 33.9333 10.7585C33.4677 11.0319 32.9357 11.1686 32.3372 11.1686C31.7165 11.1686 31.1697 11.0319 30.6968 10.7585C30.2313 10.4777 29.8655 10.086 29.5995 9.58358C29.3335 9.07373 29.2005 8.48998 29.2005 7.83235C29.2005 7.15994 29.3335 6.5725 29.5995 6.07004C29.8655 5.56757 30.2313 5.17595 30.6968 4.89516C31.1697 4.61437 31.7165 4.47398 32.3372 4.47398C32.9357 4.47398 33.4677 4.61437 33.9333 4.89516C34.4062 5.16856 34.7978 5.55649 35.1081 6.05895C35.4185 6.55403 35.6217 7.14516 35.7177 7.83235ZM31.4948 7.83235C31.4948 8.14269 31.5576 8.41979 31.6833 8.66363C31.8163 8.90747 31.9973 9.09959 32.2264 9.23998C32.4554 9.37299 32.7177 9.43949 33.0133 9.43949C33.3237 9.43949 33.6155 9.37299 33.8889 9.23998C34.1623 9.09959 34.4025 8.90747 34.6094 8.66363C34.8163 8.41979 34.9714 8.14269 35.0749 7.83235C34.9714 7.51462 34.8163 7.23383 34.6094 6.98999C34.4025 6.74614 34.1623 6.55403 33.8889 6.41363C33.6155 6.27324 33.3237 6.20304 33.0133 6.20304C32.7177 6.20304 32.4554 6.27324 32.2264 6.41363C31.9973 6.55403 31.8163 6.74614 31.6833 6.98999C31.5576 7.23383 31.4948 7.51462 31.4948 7.83235ZM42.315 11.1686C41.5465 11.1686 40.8593 11.0282 40.2534 10.7474C39.6549 10.4666 39.182 10.075 38.8347 9.57249C38.4874 9.06264 38.3138 8.47151 38.3138 7.7991C38.3138 7.14146 38.48 6.56511 38.8125 6.07004C39.145 5.56757 39.5995 5.17595 40.1758 4.89516C40.7596 4.61437 41.4172 4.47398 42.1487 4.47398C42.9098 4.47398 43.5564 4.64024 44.0884 4.97275C44.6278 5.29787 45.0416 5.75969 45.3298 6.35821C45.6253 6.95673 45.7731 7.6624 45.7731 8.47521H40.1426V7.11191H44.4985L43.7559 7.58851C43.7263 7.26338 43.645 6.98999 43.512 6.76831C43.379 6.53925 43.2017 6.3656 42.98 6.24738C42.7657 6.12915 42.5071 6.07004 42.2041 6.07004C41.8716 6.07004 41.5872 6.13654 41.3507 6.26954C41.1142 6.40255 40.9295 6.58728 40.7965 6.82373C40.6635 7.05279 40.597 7.3225 40.597 7.63284C40.597 8.03186 40.6857 8.37176 40.863 8.65254C41.0477 8.92594 41.3138 9.13653 41.661 9.28432C42.0157 9.4321 42.448 9.50599 42.9578 9.50599C43.4234 9.50599 43.8852 9.44688 44.3433 9.32865C44.8088 9.20304 45.23 9.02939 45.6069 8.80772V10.2486C45.1709 10.5442 44.6721 10.7732 44.1105 10.9358C43.5564 11.091 42.9578 11.1686 42.315 11.1686Z" fill="white"/>
<path d="M6.40639 6.92348L6.59482 6.49122C7.23767 6.506 7.766 6.60575 8.17979 6.79048C8.60097 6.96782 8.91501 7.21905 9.12191 7.54417C9.3288 7.86191 9.43225 8.23136 9.43225 8.65254C9.43225 9.10328 9.3288 9.50599 9.12191 9.86067C8.91501 10.208 8.60467 10.4851 8.19087 10.692C7.78447 10.8915 7.27462 10.9912 6.66132 10.9912H0.520935L1.16379 6.72398L0.520935 2.67842H6.43965C7.20812 2.67842 7.80664 2.85945 8.23521 3.22152C8.66378 3.5762 8.87807 4.07127 8.87807 4.70674C8.87807 5.05403 8.79678 5.38654 8.63422 5.70427C8.47166 6.02201 8.20935 6.29171 7.84728 6.51339C7.4926 6.72767 7.0123 6.86437 6.40639 6.92348ZM2.7931 10.4592L1.9064 9.38407H6.04063C6.37314 9.38407 6.63176 9.30279 6.81649 9.14023C7.00122 8.97767 7.09359 8.7523 7.09359 8.46412C7.09359 8.17594 6.99383 7.94688 6.79432 7.77693C6.59482 7.59959 6.29925 7.51092 5.90763 7.51092H2.49384V5.93703H5.59728C5.86329 5.93703 6.08497 5.85945 6.26231 5.70427C6.44703 5.54171 6.5394 5.32373 6.5394 5.05033C6.5394 4.82866 6.46181 4.64762 6.30664 4.50723C6.15147 4.35945 5.92979 4.28556 5.64162 4.28556H1.91748L2.7931 3.21044L3.35837 6.72398L2.7931 10.4592ZM19.761 7.51092C19.6797 8.24245 19.4285 8.8853 19.0073 9.43949C18.5861 9.98629 18.0319 10.4112 17.3447 10.7141C16.6649 11.0171 15.8817 11.1686 14.995 11.1686C14.027 11.1686 13.1809 10.9875 12.4568 10.6254C11.7327 10.2634 11.1674 9.75722 10.761 9.10698C10.362 8.45673 10.1625 7.69934 10.1625 6.83481C10.1625 5.97028 10.362 5.21289 10.761 4.56265C11.1674 3.9124 11.7327 3.40625 12.4568 3.04418C13.1809 2.68211 14.027 2.50108 14.995 2.50108C15.8817 2.50108 16.6649 2.65255 17.3447 2.95551C18.0319 3.25846 18.5861 3.68704 19.0073 4.24122C19.4285 4.78802 19.6797 5.42718 19.761 6.15871H17.4556C17.3817 5.80403 17.2376 5.50477 17.0233 5.26092C16.809 5.00969 16.5282 4.81758 16.1809 4.68457C15.841 4.55157 15.4457 4.48506 14.995 4.48506C14.4777 4.48506 14.0307 4.58112 13.6539 4.77324C13.277 4.95797 12.9888 5.22767 12.7893 5.58235C12.5898 5.92964 12.4901 6.34713 12.4901 6.83481C12.4901 7.3225 12.5898 7.74368 12.7893 8.09836C12.9888 8.44565 13.277 8.71535 13.6539 8.90747C14.0307 9.0922 14.4777 9.18456 14.995 9.18456C15.4457 9.18456 15.841 9.12176 16.1809 8.99614C16.5282 8.87052 16.809 8.6821 17.0233 8.43087C17.2376 8.17964 17.3817 7.87299 17.4556 7.51092H19.761ZM24.4568 11.1686C23.644 11.1686 22.9346 11.0319 22.3287 10.7585C21.7228 10.4777 21.2499 10.086 20.91 9.58358C20.5701 9.07373 20.4001 8.48998 20.4001 7.83235C20.4001 7.15994 20.5701 6.5725 20.91 6.07004C21.2499 5.56757 21.7228 5.17595 22.3287 4.89516C22.9346 4.61437 23.644 4.47398 24.4568 4.47398C25.2622 4.47398 25.9678 4.61437 26.5738 4.89516C27.1871 5.17595 27.6637 5.56757 28.0036 6.07004C28.3435 6.5725 28.5134 7.15994 28.5134 7.83235C28.5134 8.48998 28.3435 9.07373 28.0036 9.58358C27.6637 10.086 27.1871 10.4777 26.5738 10.7585C25.9678 11.0319 25.2622 11.1686 24.4568 11.1686ZM24.4568 9.49491C24.8262 9.49491 25.1403 9.42841 25.3989 9.2954C25.6649 9.1624 25.8681 8.97028 26.0085 8.71905C26.1489 8.46782 26.2191 8.17225 26.2191 7.83235C26.2191 7.47767 26.1489 7.17841 26.0085 6.93457C25.8681 6.68334 25.6649 6.49122 25.3989 6.35821C25.1403 6.22521 24.8262 6.15871 24.4568 6.15871C24.0873 6.15871 23.7696 6.22521 23.5036 6.35821C23.2376 6.49122 23.0344 6.68334 22.894 6.93457C22.7536 7.17841 22.6834 7.47398 22.6834 7.82127C22.6834 8.16856 22.7536 8.46782 22.894 8.71905C23.0344 8.97028 23.2376 9.1624 23.5036 9.2954C23.7696 9.42841 24.0873 9.49491 24.4568 9.49491ZM35.2301 10.9912L34.9308 8.61929L35.3187 7.84343L34.9419 6.86806L35.4739 2.45674H37.8236L37.1697 7.65501L37.5687 10.9912H35.2301ZM35.7177 7.83235C35.6143 8.49737 35.4074 9.08112 35.0971 9.58358C34.7941 10.086 34.4062 10.4777 33.9333 10.7585C33.4677 11.0319 32.9357 11.1686 32.3372 11.1686C31.7165 11.1686 31.1697 11.0319 30.6968 10.7585C30.2313 10.4777 29.8655 10.086 29.5995 9.58358C29.3335 9.07373 29.2005 8.48998 29.2005 7.83235C29.2005 7.15994 29.3335 6.5725 29.5995 6.07004C29.8655 5.56757 30.2313 5.17595 30.6968 4.89516C31.1697 4.61437 31.7165 4.47398 32.3372 4.47398C32.9357 4.47398 33.4677 4.61437 33.9333 4.89516C34.4062 5.16856 34.7978 5.55649 35.1081 6.05895C35.4185 6.55403 35.6217 7.14516 35.7177 7.83235ZM31.4948 7.83235C31.4948 8.14269 31.5576 8.41979 31.6833 8.66363C31.8163 8.90747 31.9973 9.09959 32.2264 9.23998C32.4554 9.37299 32.7177 9.43949 33.0133 9.43949C33.3237 9.43949 33.6155 9.37299 33.8889 9.23998C34.1623 9.09959 34.4025 8.90747 34.6094 8.66363C34.8163 8.41979 34.9714 8.14269 35.0749 7.83235C34.9714 7.51462 34.8163 7.23383 34.6094 6.98999C34.4025 6.74614 34.1623 6.55403 33.8889 6.41363C33.6155 6.27324 33.3237 6.20304 33.0133 6.20304C32.7177 6.20304 32.4554 6.27324 32.2264 6.41363C31.9973 6.55403 31.8163 6.74614 31.6833 6.98999C31.5576 7.23383 31.4948 7.51462 31.4948 7.83235ZM42.315 11.1686C41.5465 11.1686 40.8593 11.0282 40.2534 10.7474C39.6549 10.4666 39.182 10.075 38.8347 9.57249C38.4874 9.06264 38.3138 8.47151 38.3138 7.7991C38.3138 7.14146 38.48 6.56511 38.8125 6.07004C39.145 5.56757 39.5995 5.17595 40.1758 4.89516C40.7596 4.61437 41.4172 4.47398 42.1487 4.47398C42.9098 4.47398 43.5564 4.64024 44.0884 4.97275C44.6278 5.29787 45.0416 5.75969 45.3298 6.35821C45.6253 6.95673 45.7731 7.6624 45.7731 8.47521H40.1426V7.11191H44.4985L43.7559 7.58851C43.7263 7.26338 43.645 6.98999 43.512 6.76831C43.379 6.53925 43.2017 6.3656 42.98 6.24738C42.7657 6.12915 42.5071 6.07004 42.2041 6.07004C41.8716 6.07004 41.5872 6.13654 41.3507 6.26954C41.1142 6.40255 40.9295 6.58728 40.7965 6.82373C40.6635 7.05279 40.597 7.3225 40.597 7.63284C40.597 8.03186 40.6857 8.37176 40.863 8.65254C41.0477 8.92594 41.3138 9.13653 41.661 9.28432C42.0157 9.4321 42.448 9.50599 42.9578 9.50599C43.4234 9.50599 43.8852 9.44688 44.3433 9.32865C44.8088 9.20304 45.23 9.02939 45.6069 8.80772V10.2486C45.1709 10.5442 44.6721 10.7732 44.1105 10.9358C43.5564 11.091 42.9578 11.1686 42.315 11.1686Z" fill="url(#paint0_linear_1_15719)"/>
<path d="M21.2367 19.1797H23.5753C23.6123 19.4087 23.7194 19.6082 23.8968 19.7782C24.0741 19.9481 24.3105 20.0811 24.6061 20.1772C24.9091 20.2659 25.2637 20.3102 25.6702 20.3102C26.2317 20.3102 26.6751 20.24 27.0002 20.0996C27.3253 19.9518 27.4879 19.7375 27.4879 19.4567C27.4879 19.2425 27.3955 19.0762 27.2108 18.958C27.0261 18.8398 26.6714 18.7548 26.1468 18.7031L24.595 18.559C23.4497 18.4555 22.6184 18.1969 22.1012 17.7831C21.584 17.3619 21.3253 16.7967 21.3253 16.0873C21.3253 15.5109 21.4916 15.0233 21.8241 14.6242C22.164 14.2252 22.6369 13.926 23.2428 13.7265C23.8561 13.5196 24.5692 13.4161 25.382 13.4161C26.18 13.4161 26.8894 13.5306 27.5101 13.7597C28.1307 13.9814 28.6221 14.2991 28.9842 14.7129C29.3536 15.1267 29.5531 15.607 29.5827 16.1538H27.2551C27.2256 15.9543 27.1295 15.7843 26.9669 15.6439C26.8118 15.4962 26.5975 15.3853 26.3241 15.3114C26.0507 15.2302 25.7219 15.1895 25.3376 15.1895C24.8204 15.1895 24.4103 15.2597 24.1073 15.4001C23.8044 15.5331 23.6529 15.7326 23.6529 15.9986C23.6529 16.1907 23.7416 16.3459 23.9189 16.4641C24.1037 16.5824 24.4325 16.6636 24.9054 16.708L26.5568 16.8742C27.3475 16.9481 27.9793 17.0774 28.4522 17.2622C28.9251 17.4395 29.2687 17.687 29.483 18.0048C29.6972 18.3225 29.8044 18.7178 29.8044 19.1907C29.8044 19.7745 29.6307 20.2843 29.2834 20.7203C28.9362 21.1489 28.4485 21.4851 27.8204 21.7289C27.1923 21.9654 26.4608 22.0836 25.6258 22.0836C24.7687 22.0836 24.0113 21.9654 23.3537 21.7289C22.7034 21.4851 22.1936 21.1452 21.8241 20.7092C21.4546 20.2659 21.2588 19.756 21.2367 19.1797ZM30.1478 17.2511V16.2646L31.4335 15.7437L32.4089 13.8705H33.6946V15.5774H36.3547V17.2511H33.6946V19.1132C33.6946 19.5713 33.787 19.8927 33.9717 20.0774C34.1564 20.2622 34.4926 20.3545 34.9803 20.3545C35.2907 20.3545 35.5641 20.3287 35.8005 20.2769C36.0443 20.2178 36.266 20.1439 36.4655 20.0553V21.7622C36.2439 21.8434 35.952 21.9173 35.5899 21.9838C35.2278 22.0503 34.8547 22.0836 34.4705 22.0836C33.7685 22.0836 33.1921 21.9764 32.7414 21.7622C32.298 21.5479 31.9692 21.2412 31.7549 20.8422C31.5407 20.4358 31.4335 19.9629 31.4335 19.4235V17.2511H30.1478ZM40.107 22.0836C39.5158 22.0836 39.0097 21.9617 38.5885 21.7178C38.1747 21.474 37.857 21.1304 37.6353 20.687C37.4136 20.2363 37.3028 19.7117 37.3028 19.1132V15.5774H39.5639V18.7917C39.5639 19.2572 39.6784 19.6156 39.9075 19.8668C40.1365 20.1181 40.4653 20.2437 40.8939 20.2437C41.2116 20.2437 41.4777 20.1809 41.6919 20.0553C41.9062 19.9223 42.0725 19.7338 42.1907 19.49C42.3089 19.2462 42.368 18.9543 42.368 18.6144L43.0663 18.9801C42.985 19.6526 42.8003 20.2215 42.5121 20.687C42.2313 21.1452 41.8841 21.4925 41.4703 21.7289C41.0565 21.9654 40.602 22.0836 40.107 22.0836ZM42.7781 21.9062L42.368 19.3681V15.5774H44.6291V19.7228L45.0392 21.9062H42.7781ZM51.7273 21.9062L51.428 19.5343L51.816 18.7585L51.4391 17.7831L51.9711 13.3718H54.3209L53.6669 18.57L54.066 21.9062H51.7273ZM52.215 18.7474C52.1115 19.4124 51.9046 19.9962 51.5943 20.4986C51.2913 21.0011 50.9034 21.3927 50.4305 21.6735C49.965 21.9469 49.433 22.0836 48.8344 22.0836C48.2138 22.0836 47.667 21.9469 47.1941 21.6735C46.7285 21.3927 46.3628 21.0011 46.0968 20.4986C45.8308 19.9888 45.6978 19.405 45.6978 18.7474C45.6978 18.075 45.8308 17.4875 46.0968 16.9851C46.3628 16.4826 46.7285 16.091 47.1941 15.8102C47.667 15.5294 48.2138 15.389 48.8344 15.389C49.433 15.389 49.965 15.5294 50.4305 15.8102C50.9034 16.0836 51.295 16.4715 51.6054 16.974C51.9157 17.4691 52.1189 18.0602 52.215 18.7474ZM47.9921 18.7474C47.9921 19.0577 48.0549 19.3348 48.1805 19.5787C48.3135 19.8225 48.4945 20.0146 48.7236 20.155C48.9527 20.288 49.215 20.3545 49.5106 20.3545C49.8209 20.3545 50.1128 20.288 50.3862 20.155C50.6596 20.0146 50.8997 19.8225 51.1066 19.5787C51.3135 19.3348 51.4687 19.0577 51.5721 18.7474C51.4687 18.4297 51.3135 18.1489 51.1066 17.905C50.8997 17.6612 50.6596 17.4691 50.3862 17.3287C50.1128 17.1883 49.8209 17.1181 49.5106 17.1181C49.215 17.1181 48.9527 17.1883 48.7236 17.3287C48.4945 17.4691 48.3135 17.6612 48.1805 17.905C48.0549 18.1489 47.9921 18.4297 47.9921 18.7474ZM55.1425 15.4777L56.2841 15.6994L57.4146 15.4777V21.9062H55.1425V15.4777ZM56.273 14.9568C55.8814 14.9568 55.5637 14.8607 55.3198 14.6686C55.076 14.4691 54.954 14.1994 54.954 13.8595C54.954 13.527 55.076 13.2609 55.3198 13.0614C55.5637 12.8619 55.8814 12.7622 56.273 12.7622C56.6794 12.7622 57.0008 12.8619 57.2373 13.0614C57.4811 13.2609 57.6031 13.527 57.6031 13.8595C57.6031 14.1994 57.4811 14.4691 57.2373 14.6686C57.0008 14.8607 56.6794 14.9568 56.273 14.9568ZM62.4287 22.0836C61.6159 22.0836 60.9066 21.9469 60.3006 21.6735C59.6947 21.3927 59.2218 21.0011 58.8819 20.4986C58.542 19.9888 58.3721 19.405 58.3721 18.7474C58.3721 18.075 58.542 17.4875 58.8819 16.9851C59.2218 16.4826 59.6947 16.091 60.3006 15.8102C60.9066 15.5294 61.6159 15.389 62.4287 15.389C63.2341 15.389 63.9398 15.5294 64.5457 15.8102C65.159 16.091 65.6356 16.4826 65.9755 16.9851C66.3154 17.4875 66.4854 18.075 66.4854 18.7474C66.4854 19.405 66.3154 19.9888 65.9755 20.4986C65.6356 21.0011 65.159 21.3927 64.5457 21.6735C63.9398 21.9469 63.2341 22.0836 62.4287 22.0836ZM62.4287 20.4099C62.7982 20.4099 63.1122 20.3434 63.3708 20.2104C63.6368 20.0774 63.84 19.8853 63.9804 19.6341C64.1208 19.3829 64.191 19.0873 64.191 18.7474C64.191 18.3927 64.1208 18.0934 63.9804 17.8496C63.84 17.5984 63.6368 17.4063 63.3708 17.2733C63.1122 17.1402 62.7982 17.0737 62.4287 17.0737C62.0593 17.0737 61.7415 17.1402 61.4755 17.2733C61.2095 17.4063 61.0063 17.5984 60.8659 17.8496C60.7255 18.0934 60.6553 18.389 60.6553 18.7363C60.6553 19.0836 60.7255 19.3829 60.8659 19.6341C61.0063 19.8853 61.2095 20.0774 61.4755 20.2104C61.7415 20.3434 62.0593 20.4099 62.4287 20.4099Z" fill="white"/>
<path d="M21.2367 19.1797H23.5753C23.6123 19.4087 23.7194 19.6082 23.8968 19.7782C24.0741 19.9481 24.3105 20.0811 24.6061 20.1772C24.9091 20.2659 25.2637 20.3102 25.6702 20.3102C26.2317 20.3102 26.6751 20.24 27.0002 20.0996C27.3253 19.9518 27.4879 19.7375 27.4879 19.4567C27.4879 19.2425 27.3955 19.0762 27.2108 18.958C27.0261 18.8398 26.6714 18.7548 26.1468 18.7031L24.595 18.559C23.4497 18.4555 22.6184 18.1969 22.1012 17.7831C21.584 17.3619 21.3253 16.7967 21.3253 16.0873C21.3253 15.5109 21.4916 15.0233 21.8241 14.6242C22.164 14.2252 22.6369 13.926 23.2428 13.7265C23.8561 13.5196 24.5692 13.4161 25.382 13.4161C26.18 13.4161 26.8894 13.5306 27.5101 13.7597C28.1307 13.9814 28.6221 14.2991 28.9842 14.7129C29.3536 15.1267 29.5531 15.607 29.5827 16.1538H27.2551C27.2256 15.9543 27.1295 15.7843 26.9669 15.6439C26.8118 15.4962 26.5975 15.3853 26.3241 15.3114C26.0507 15.2302 25.7219 15.1895 25.3376 15.1895C24.8204 15.1895 24.4103 15.2597 24.1073 15.4001C23.8044 15.5331 23.6529 15.7326 23.6529 15.9986C23.6529 16.1907 23.7416 16.3459 23.9189 16.4641C24.1037 16.5824 24.4325 16.6636 24.9054 16.708L26.5568 16.8742C27.3475 16.9481 27.9793 17.0774 28.4522 17.2622C28.9251 17.4395 29.2687 17.687 29.483 18.0048C29.6972 18.3225 29.8044 18.7178 29.8044 19.1907C29.8044 19.7745 29.6307 20.2843 29.2834 20.7203C28.9362 21.1489 28.4485 21.4851 27.8204 21.7289C27.1923 21.9654 26.4608 22.0836 25.6258 22.0836C24.7687 22.0836 24.0113 21.9654 23.3537 21.7289C22.7034 21.4851 22.1936 21.1452 21.8241 20.7092C21.4546 20.2659 21.2588 19.756 21.2367 19.1797ZM30.1478 17.2511V16.2646L31.4335 15.7437L32.4089 13.8705H33.6946V15.5774H36.3547V17.2511H33.6946V19.1132C33.6946 19.5713 33.787 19.8927 33.9717 20.0774C34.1564 20.2622 34.4926 20.3545 34.9803 20.3545C35.2907 20.3545 35.5641 20.3287 35.8005 20.2769C36.0443 20.2178 36.266 20.1439 36.4655 20.0553V21.7622C36.2439 21.8434 35.952 21.9173 35.5899 21.9838C35.2278 22.0503 34.8547 22.0836 34.4705 22.0836C33.7685 22.0836 33.1921 21.9764 32.7414 21.7622C32.298 21.5479 31.9692 21.2412 31.7549 20.8422C31.5407 20.4358 31.4335 19.9629 31.4335 19.4235V17.2511H30.1478ZM40.107 22.0836C39.5158 22.0836 39.0097 21.9617 38.5885 21.7178C38.1747 21.474 37.857 21.1304 37.6353 20.687C37.4136 20.2363 37.3028 19.7117 37.3028 19.1132V15.5774H39.5639V18.7917C39.5639 19.2572 39.6784 19.6156 39.9075 19.8668C40.1365 20.1181 40.4653 20.2437 40.8939 20.2437C41.2116 20.2437 41.4777 20.1809 41.6919 20.0553C41.9062 19.9223 42.0725 19.7338 42.1907 19.49C42.3089 19.2462 42.368 18.9543 42.368 18.6144L43.0663 18.9801C42.985 19.6526 42.8003 20.2215 42.5121 20.687C42.2313 21.1452 41.8841 21.4925 41.4703 21.7289C41.0565 21.9654 40.602 22.0836 40.107 22.0836ZM42.7781 21.9062L42.368 19.3681V15.5774H44.6291V19.7228L45.0392 21.9062H42.7781ZM51.7273 21.9062L51.428 19.5343L51.816 18.7585L51.4391 17.7831L51.9711 13.3718H54.3209L53.6669 18.57L54.066 21.9062H51.7273ZM52.215 18.7474C52.1115 19.4124 51.9046 19.9962 51.5943 20.4986C51.2913 21.0011 50.9034 21.3927 50.4305 21.6735C49.965 21.9469 49.433 22.0836 48.8344 22.0836C48.2138 22.0836 47.667 21.9469 47.1941 21.6735C46.7285 21.3927 46.3628 21.0011 46.0968 20.4986C45.8308 19.9888 45.6978 19.405 45.6978 18.7474C45.6978 18.075 45.8308 17.4875 46.0968 16.9851C46.3628 16.4826 46.7285 16.091 47.1941 15.8102C47.667 15.5294 48.2138 15.389 48.8344 15.389C49.433 15.389 49.965 15.5294 50.4305 15.8102C50.9034 16.0836 51.295 16.4715 51.6054 16.974C51.9157 17.4691 52.1189 18.0602 52.215 18.7474ZM47.9921 18.7474C47.9921 19.0577 48.0549 19.3348 48.1805 19.5787C48.3135 19.8225 48.4945 20.0146 48.7236 20.155C48.9527 20.288 49.215 20.3545 49.5106 20.3545C49.8209 20.3545 50.1128 20.288 50.3862 20.155C50.6596 20.0146 50.8997 19.8225 51.1066 19.5787C51.3135 19.3348 51.4687 19.0577 51.5721 18.7474C51.4687 18.4297 51.3135 18.1489 51.1066 17.905C50.8997 17.6612 50.6596 17.4691 50.3862 17.3287C50.1128 17.1883 49.8209 17.1181 49.5106 17.1181C49.215 17.1181 48.9527 17.1883 48.7236 17.3287C48.4945 17.4691 48.3135 17.6612 48.1805 17.905C48.0549 18.1489 47.9921 18.4297 47.9921 18.7474ZM55.1425 15.4777L56.2841 15.6994L57.4146 15.4777V21.9062H55.1425V15.4777ZM56.273 14.9568C55.8814 14.9568 55.5637 14.8607 55.3198 14.6686C55.076 14.4691 54.954 14.1994 54.954 13.8595C54.954 13.527 55.076 13.2609 55.3198 13.0614C55.5637 12.8619 55.8814 12.7622 56.273 12.7622C56.6794 12.7622 57.0008 12.8619 57.2373 13.0614C57.4811 13.2609 57.6031 13.527 57.6031 13.8595C57.6031 14.1994 57.4811 14.4691 57.2373 14.6686C57.0008 14.8607 56.6794 14.9568 56.273 14.9568ZM62.4287 22.0836C61.6159 22.0836 60.9066 21.9469 60.3006 21.6735C59.6947 21.3927 59.2218 21.0011 58.8819 20.4986C58.542 19.9888 58.3721 19.405 58.3721 18.7474C58.3721 18.075 58.542 17.4875 58.8819 16.9851C59.2218 16.4826 59.6947 16.091 60.3006 15.8102C60.9066 15.5294 61.6159 15.389 62.4287 15.389C63.2341 15.389 63.9398 15.5294 64.5457 15.8102C65.159 16.091 65.6356 16.4826 65.9755 16.9851C66.3154 17.4875 66.4854 18.075 66.4854 18.7474C66.4854 19.405 66.3154 19.9888 65.9755 20.4986C65.6356 21.0011 65.159 21.3927 64.5457 21.6735C63.9398 21.9469 63.2341 22.0836 62.4287 22.0836ZM62.4287 20.4099C62.7982 20.4099 63.1122 20.3434 63.3708 20.2104C63.6368 20.0774 63.84 19.8853 63.9804 19.6341C64.1208 19.3829 64.191 19.0873 64.191 18.7474C64.191 18.3927 64.1208 18.0934 63.9804 17.8496C63.84 17.5984 63.6368 17.4063 63.3708 17.2733C63.1122 17.1402 62.7982 17.0737 62.4287 17.0737C62.0593 17.0737 61.7415 17.1402 61.4755 17.2733C61.2095 17.4063 61.0063 17.5984 60.8659 17.8496C60.7255 18.0934 60.6553 18.389 60.6553 18.7363C60.6553 19.0836 60.7255 19.3829 60.8659 19.6341C61.0063 19.8853 61.2095 20.0774 61.4755 20.2104C61.7415 20.3434 62.0593 20.4099 62.4287 20.4099Z" fill="url(#paint1_linear_1_15719)"/>
<path d="M65.8454 3.96014C65.6514 3.96014 65.4719 3.93 65.3068 3.86972C65.1417 3.80682 64.9988 3.72033 64.8783 3.61025C64.7577 3.49755 64.6634 3.36651 64.5952 3.21712C64.5297 3.06511 64.4969 2.89869 64.4969 2.71785C64.4969 2.53963 64.5297 2.37583 64.5952 2.22644C64.6634 2.07443 64.7577 1.94338 64.8783 1.83331C64.9988 1.72061 65.1417 1.63412 65.3068 1.57384C65.4719 1.51094 65.6514 1.47949 65.8454 1.47949C66.0393 1.47949 66.2189 1.51094 66.384 1.57384C66.5491 1.63412 66.6919 1.72061 66.8125 1.83331C66.933 1.94338 67.0261 2.07443 67.0916 2.22644C67.1597 2.37583 67.1938 2.53963 67.1938 2.71785C67.1938 2.89869 67.1597 3.06511 67.0916 3.21712C67.0261 3.36651 66.933 3.49755 66.8125 3.61025C66.6919 3.72033 66.5491 3.80682 66.384 3.86972C66.2189 3.93 66.0393 3.96014 65.8454 3.96014ZM65.8454 3.68888C66.0577 3.68888 66.2424 3.64694 66.3997 3.56308C66.5569 3.47921 66.6788 3.3652 66.7653 3.22105C66.8544 3.07429 66.899 2.90655 66.899 2.71785C66.899 2.53177 66.8544 2.36534 66.7653 2.21857C66.6788 2.07181 66.5569 1.9578 66.3997 1.87655C66.2424 1.79531 66.0577 1.75468 65.8454 1.75468C65.6357 1.75468 65.4509 1.79531 65.2911 1.87655C65.1338 1.9578 65.0106 2.07181 64.9215 2.21857C64.835 2.36534 64.7918 2.53177 64.7918 2.71785C64.7918 2.90655 64.835 3.07429 64.9215 3.22105C65.0106 3.3652 65.1338 3.47921 65.2911 3.56308C65.4509 3.64694 65.6357 3.68888 65.8454 3.68888ZM65.2282 2.01808H65.6174V3.40582H65.2282V2.01808ZM65.9633 2.92228H65.5191V2.62743H65.9319C65.9843 2.62743 66.0249 2.61432 66.0537 2.58812C66.0852 2.55929 66.1009 2.51997 66.1009 2.47018C66.1009 2.423 66.0852 2.38631 66.0537 2.3601C66.0249 2.33127 65.9843 2.31686 65.9319 2.31686H65.5191V2.01808H65.9633C66.1232 2.01808 66.2516 2.06001 66.3486 2.14388C66.4482 2.22775 66.498 2.33651 66.498 2.47018C66.498 2.60646 66.4482 2.71654 66.3486 2.80041C66.2516 2.88165 66.1232 2.92228 65.9633 2.92228ZM65.7196 2.75716H66.1206L66.5412 3.40582H66.0891L65.7196 2.75716Z" fill="white"/>
<path d="M65.8454 3.96014C65.6514 3.96014 65.4719 3.93 65.3068 3.86972C65.1417 3.80682 64.9988 3.72033 64.8783 3.61025C64.7577 3.49755 64.6634 3.36651 64.5952 3.21712C64.5297 3.06511 64.4969 2.89869 64.4969 2.71785C64.4969 2.53963 64.5297 2.37583 64.5952 2.22644C64.6634 2.07443 64.7577 1.94338 64.8783 1.83331C64.9988 1.72061 65.1417 1.63412 65.3068 1.57384C65.4719 1.51094 65.6514 1.47949 65.8454 1.47949C66.0393 1.47949 66.2189 1.51094 66.384 1.57384C66.5491 1.63412 66.6919 1.72061 66.8125 1.83331C66.933 1.94338 67.0261 2.07443 67.0916 2.22644C67.1597 2.37583 67.1938 2.53963 67.1938 2.71785C67.1938 2.89869 67.1597 3.06511 67.0916 3.21712C67.0261 3.36651 66.933 3.49755 66.8125 3.61025C66.6919 3.72033 66.5491 3.80682 66.384 3.86972C66.2189 3.93 66.0393 3.96014 65.8454 3.96014ZM65.8454 3.68888C66.0577 3.68888 66.2424 3.64694 66.3997 3.56308C66.5569 3.47921 66.6788 3.3652 66.7653 3.22105C66.8544 3.07429 66.899 2.90655 66.899 2.71785C66.899 2.53177 66.8544 2.36534 66.7653 2.21857C66.6788 2.07181 66.5569 1.9578 66.3997 1.87655C66.2424 1.79531 66.0577 1.75468 65.8454 1.75468C65.6357 1.75468 65.4509 1.79531 65.2911 1.87655C65.1338 1.9578 65.0106 2.07181 64.9215 2.21857C64.835 2.36534 64.7918 2.53177 64.7918 2.71785C64.7918 2.90655 64.835 3.07429 64.9215 3.22105C65.0106 3.3652 65.1338 3.47921 65.2911 3.56308C65.4509 3.64694 65.6357 3.68888 65.8454 3.68888ZM65.2282 2.01808H65.6174V3.40582H65.2282V2.01808ZM65.9633 2.92228H65.5191V2.62743H65.9319C65.9843 2.62743 66.0249 2.61432 66.0537 2.58812C66.0852 2.55929 66.1009 2.51997 66.1009 2.47018C66.1009 2.423 66.0852 2.38631 66.0537 2.3601C66.0249 2.33127 65.9843 2.31686 65.9319 2.31686H65.5191V2.01808H65.9633C66.1232 2.01808 66.2516 2.06001 66.3486 2.14388C66.4482 2.22775 66.498 2.33651 66.498 2.47018C66.498 2.60646 66.4482 2.71654 66.3486 2.80041C66.2516 2.88165 66.1232 2.92228 65.9633 2.92228ZM65.7196 2.75716H66.1206L66.5412 3.40582H66.0891L65.7196 2.75716Z" fill="url(#paint2_linear_1_15719)"/>
<path d="M17.7422 20.4639L15.9195 18.5853L16.2351 15.7046L13.1317 15.7122L11.5235 14.0547L18.5496 13.4589L17.7422 20.4639Z" fill="#D9D9D9"/>
<path d="M17.7422 20.4639L15.9195 18.5853L16.2351 15.7046L13.1317 15.7122L11.5235 14.0547L18.5496 13.4589L17.7422 20.4639Z" fill="url(#paint3_linear_1_15719)"/>
<defs>
<linearGradient id="paint0_linear_1_15719" x1="23.5" y1="12.9912" x2="18.8443" y2="-0.826518" gradientUnits="userSpaceOnUse">
<stop stop-color="#BFBFBF"/>
<stop offset="1" stop-color="white"/>
</linearGradient>
<linearGradient id="paint1_linear_1_15719" x1="43.8376" y1="23.9062" x2="39.102" y2="10.1502" gradientUnits="userSpaceOnUse">
<stop stop-color="#BFBFBF"/>
<stop offset="1" stop-color="white"/>
</linearGradient>
<linearGradient id="paint2_linear_1_15719" x1="65.8723" y1="5.37072" x2="63.5461" y2="4.04866" gradientUnits="userSpaceOnUse">
<stop stop-color="#BFBFBF"/>
<stop offset="1" stop-color="white"/>
</linearGradient>
<linearGradient id="paint3_linear_1_15719" x1="17.7422" y1="20.4639" x2="21.7519" y2="16.2255" gradientUnits="userSpaceOnUse">
<stop stop-color="#16ADEC"/>
<stop offset="1" stop-color="#1464DB"/>
</linearGradient>
</defs>
</svg>
