<svg width="29" height="26" viewBox="0 0 29 26" fill="none" xmlns="http://www.w3.org/2000/svg">
<path fill-rule="evenodd" clip-rule="evenodd" d="M26.9414 0.844048C26.2877 1.13144 24.5219 1.91053 23.0173 2.57543C21.5127 3.24028 20.1344 3.84709 19.9545 3.92396C19.7746 4.00077 18.0753 4.74921 16.1781 5.58714C12.6933 7.12634 6.97973 9.64467 3.02022 11.3866C1.83449 11.9082 0.864759 12.3503 0.865235 12.369C0.86571 12.3877 1.64847 12.7196 2.60476 13.1066C3.56105 13.4936 4.77164 13.9858 5.29498 14.2005C5.81832 14.4151 6.50075 14.692 6.81149 14.8158L7.37646 15.0408L9.05484 19.4685C9.97795 21.9037 10.7445 23.9244 10.7581 23.959C10.7719 23.9935 11.7696 22.9831 12.9754 21.7137C14.1812 20.4443 15.1894 19.4057 15.2158 19.4057C15.2422 19.4057 16.1787 20.1753 17.297 21.1158C18.4152 22.0565 19.7173 23.1516 20.1906 23.5495C20.6639 23.9474 21.44 24.6013 21.9153 25.0027C22.4373 25.4434 22.794 25.7045 22.8163 25.6621C22.8366 25.6235 22.9254 25.2386 23.0137 24.8068C23.1019 24.3751 23.2649 23.5979 23.376 23.0797C23.4871 22.5616 24.5563 17.4745 25.7521 11.775C26.9478 6.07551 27.977 1.1722 28.0391 0.878716C28.1013 0.585232 28.1471 0.339857 28.1409 0.333388C28.1348 0.326856 27.595 0.556719 26.9414 0.844048ZM20.0721 7.87032C19.8743 8.06665 17.736 10.1283 14.6616 13.0868C13.2715 14.4246 12.0895 15.581 12.035 15.6568C11.9805 15.7325 11.8102 16.3032 11.6565 16.9249C10.9667 19.7158 10.9342 19.8273 10.8612 19.6569C10.8242 19.5705 10.3936 18.4404 9.90421 17.1456C9.2106 15.3102 9.03064 14.7756 9.08755 14.7199C9.1277 14.6807 9.9233 14.1691 10.8555 13.5832C11.7877 12.9973 13.8082 11.7257 15.3456 10.7574C19.9852 7.83534 20.1617 7.72487 20.1911 7.72449C20.2067 7.7243 20.1532 7.78987 20.0721 7.87032Z" fill="white"/>
</svg>
