<?xml version="1.0" encoding="UTF-8"?> <svg xmlns="http://www.w3.org/2000/svg" width="34" height="25" viewBox="0 0 34 25" fill="none"><path fill-rule="evenodd" clip-rule="evenodd" d="M3.33157 3.00226C11.4811 -1.49626 21.2536 -0.863697 28.883 4.38592C28.9364 4.42109 28.9992 4.43847 29.0619 4.43588C29.7098 4.40512 30.327 4.47445 30.9134 4.64312C32.801 5.49461 33.737 6.84997 33.721 8.7095C33.6889 12.6317 28.6578 14.4653 26.1997 11.3264C25.0009 9.79609 24.9627 7.81189 26.0652 6.18121C26.1026 6.12632 26.0952 6.07887 26.043 6.0387C18.765 0.455772 9.02097 0.0439923 1.16666 4.4461C1.13466 4.46342 1.10928 4.46822 1.09057 4.4603C1.05978 4.44557 1.05848 4.42851 1.0866 4.40977L3.33157 3.00226ZM29.5076 6.30556C28.2044 6.30556 27.148 7.36205 27.1479 8.66522C27.1479 9.96845 28.2043 11.0249 29.5076 11.0249C30.8107 11.0248 31.8672 9.96839 31.8672 8.66522C31.8671 7.36211 30.8107 6.30566 29.5076 6.30556Z" fill="#06A5FF"></path><path fill-rule="evenodd" clip-rule="evenodd" d="M0.349499 10.3282C-0.929769 7.43631 1.48194 4.05855 4.67308 4.46824C6.70139 4.72933 7.96139 5.91606 8.45274 8.02874C8.47015 8.10492 8.51681 8.13368 8.59298 8.11504C13.8037 6.8552 18.8104 7.37874 23.6128 9.6855C24.5688 10.1447 24.5461 10.1996 23.5447 9.85015C18.4437 8.06951 13.3399 8.3596 8.23358 10.72C7.67748 10.977 7.53677 11.4728 7.10712 11.8061C5.50455 13.0459 3.92146 13.2566 2.35771 12.4386C1.42459 11.9513 0.755177 11.2479 0.349499 10.3282ZM4.24328 6.30555C2.9401 6.30556 1.8837 7.36204 1.88362 8.66521C1.88362 9.96844 2.94005 11.0249 4.24328 11.0249C5.54651 11.0249 6.60294 9.96844 6.60294 8.66521C6.60286 7.36204 5.54647 6.30555 4.24328 6.30555Z" fill="#06A5FF"></path><path d="M32.0096 24.1608C31.8457 24.1608 31.7039 24.1188 31.584 24.0349C31.4681 23.955 31.3641 23.8331 31.2722 23.6692C31.2363 23.5613 31.1963 23.4354 31.1523 23.2915C31.1084 23.1437 31.0644 22.9938 31.0204 22.8419C30.9805 22.69 30.9385 22.5462 30.8945 22.4103C30.8506 22.2704 30.8066 22.1545 30.7627 22.0626C30.7067 21.9347 30.6368 21.8408 30.5528 21.7808C30.4729 21.7209 30.353 21.6789 30.1931 21.6549C30.1132 21.6469 29.9913 21.6369 29.8275 21.625C29.6676 21.609 29.4918 21.597 29.2999 21.589C29.1081 21.577 28.9282 21.571 28.7604 21.571C28.5046 21.571 28.2448 21.577 27.981 21.589C27.7173 21.601 27.4895 21.617 27.2976 21.6369C27.1338 21.6529 27.0099 21.6869 26.926 21.7389C26.846 21.7868 26.7801 21.8727 26.7281 21.9966C26.6762 22.1125 26.6222 22.2524 26.5663 22.4163C26.5103 22.5801 26.4544 22.752 26.3984 22.9318C26.3424 23.1117 26.2865 23.2875 26.2305 23.4594C26.1466 23.6512 26.0447 23.7971 25.9248 23.897C25.8089 23.9929 25.647 24.0409 25.4392 24.0409C25.2794 24.0409 25.1455 24.0149 25.0376 23.963C24.9297 23.911 24.8497 23.8251 24.7978 23.7052C24.7458 23.5853 24.7198 23.4274 24.7198 23.2316C24.7198 23.0477 24.7458 22.8279 24.7978 22.5721C24.8497 22.3124 24.9197 22.0326 25.0076 21.7329C25.0995 21.4331 25.1994 21.1294 25.3073 20.8216C25.4192 20.5139 25.5311 20.2182 25.643 19.9344C25.7589 19.6467 25.8689 19.3889 25.9728 19.1611C26.0767 18.9293 26.1666 18.7454 26.2425 18.6095C26.3784 18.3578 26.5323 18.116 26.7041 17.8842C26.88 17.6524 27.0738 17.4465 27.2856 17.2667C27.5015 17.0828 27.7373 16.939 27.993 16.8351C28.2488 16.7272 28.5306 16.6732 28.8383 16.6732C29.3339 16.6732 29.7795 16.8231 30.1752 17.1228C30.5748 17.4226 30.9285 17.8202 31.2363 18.3158C31.3522 18.4836 31.4681 18.7015 31.584 18.9692C31.7039 19.233 31.8218 19.5268 31.9377 19.8505C32.0536 20.1702 32.1615 20.5019 32.2614 20.8456C32.3613 21.1893 32.4492 21.527 32.5252 21.8588C32.6051 22.1905 32.665 22.4962 32.705 22.776C32.749 23.0557 32.7709 23.2915 32.7709 23.4834C32.7709 23.7312 32.703 23.905 32.5671 24.0049C32.4312 24.1088 32.2454 24.1608 32.0096 24.1608ZM30.2711 20.6178C30.359 20.6018 30.417 20.5679 30.4449 20.5159C30.4729 20.464 30.4869 20.382 30.4869 20.2701C30.4869 20.1462 30.4649 19.9944 30.421 19.8145C30.381 19.6307 30.325 19.4388 30.2531 19.239C30.1812 19.0352 30.0972 18.8453 30.0013 18.6695C29.8654 18.4097 29.7056 18.1939 29.5217 18.022C29.3379 17.8462 29.1401 17.7583 28.9282 17.7583C28.6964 17.7583 28.4746 17.8502 28.2628 18.034C28.055 18.2139 27.8711 18.4437 27.7113 18.7234C27.6433 18.8353 27.5734 18.9632 27.5015 19.1071C27.4295 19.251 27.3636 19.3989 27.3036 19.5507C27.2437 19.7026 27.1937 19.8465 27.1538 19.9824C27.1178 20.1143 27.0998 20.2262 27.0998 20.3181C27.0998 20.438 27.1478 20.5219 27.2437 20.5699C27.3396 20.6138 27.4935 20.6358 27.7053 20.6358C28.1529 20.6358 28.5406 20.6358 28.8683 20.6358C29.196 20.6358 29.4738 20.6358 29.7016 20.6358C29.9334 20.6358 30.1232 20.6298 30.2711 20.6178Z" fill="#06A5FF"></path><path d="M20.9878 24.0409C20.764 24.0409 20.6041 23.987 20.5082 23.8791C20.4123 23.7672 20.3443 23.5953 20.3043 23.3635C20.2924 23.2796 20.2824 23.1836 20.2744 23.0757C20.2704 22.9678 20.2644 22.8539 20.2564 22.734C20.2524 22.6141 20.2464 22.4942 20.2384 22.3743C20.2344 22.2505 20.2284 22.1326 20.2204 22.0206C20.2044 21.7769 20.1765 21.565 20.1365 21.3852C20.0965 21.2053 19.9926 21.0595 19.8248 20.9476C19.6369 20.8237 19.4531 20.7018 19.2732 20.5819C19.0974 20.462 18.9355 20.3341 18.7876 20.1982C18.6198 20.0423 18.4679 19.8585 18.332 19.6467C18.1962 19.4349 18.0803 19.2091 17.9843 18.9693C17.8924 18.7255 17.8205 18.4797 17.7685 18.2319C17.7166 17.9841 17.6906 17.7523 17.6906 17.5365C17.6906 17.3606 17.7246 17.2108 17.7925 17.0869C17.8644 16.963 17.9604 16.8691 18.0803 16.8051C18.2041 16.7372 18.344 16.7032 18.4999 16.7032C18.6318 16.7032 18.7497 16.7612 18.8536 16.8771C18.9575 16.989 19.0534 17.1768 19.1413 17.4406C19.1893 17.6284 19.2492 17.8222 19.3212 18.0221C19.3931 18.2179 19.4751 18.4077 19.567 18.5916C19.6829 18.8394 19.8148 19.0672 19.9626 19.275C20.1105 19.4788 20.2744 19.6407 20.4542 19.7606C20.6381 19.8805 20.8359 19.9404 21.0477 19.9404C21.2395 19.9404 21.4274 19.8825 21.6112 19.7666C21.7991 19.6507 21.9789 19.5008 22.1508 19.317C22.3706 19.0772 22.5684 18.8054 22.7443 18.5017C22.9201 18.1979 23.058 17.9162 23.1579 17.6564C23.2858 17.3726 23.4017 17.1648 23.5056 17.0329C23.6095 16.897 23.7254 16.8291 23.8533 16.8291C24.0012 16.8291 24.1311 16.8671 24.243 16.943C24.3589 17.0189 24.4488 17.1188 24.5127 17.2427C24.5767 17.3666 24.6087 17.5065 24.6087 17.6624C24.6087 17.8542 24.5787 18.062 24.5187 18.2858C24.4588 18.5097 24.3749 18.7375 24.267 18.9693C24.159 19.2011 24.0312 19.4249 23.8833 19.6407C23.7394 19.8525 23.5835 20.0423 23.4157 20.2102C23.2198 20.406 23.022 20.5739 22.8222 20.7138C22.6264 20.8536 22.4445 20.9775 22.2767 21.0854C22.1648 21.1574 22.0768 21.2253 22.0129 21.2893C21.9529 21.3532 21.907 21.4232 21.875 21.4991C21.843 21.575 21.8131 21.6709 21.7851 21.7868C21.7731 21.8708 21.7611 21.9747 21.7491 22.0986C21.7371 22.2225 21.7251 22.3564 21.7131 22.5002C21.7011 22.6401 21.6892 22.784 21.6772 22.9319C21.6652 23.0757 21.6512 23.2116 21.6352 23.3395C21.6072 23.5593 21.5373 23.7312 21.4254 23.8551C21.3175 23.979 21.1716 24.0409 20.9878 24.0409Z" fill="#06A5FF"></path><path d="M12.6872 24.5444C12.1117 24.5444 11.5842 24.4545 11.1046 24.2746C10.629 24.0988 10.2153 23.843 9.86363 23.5073C9.51593 23.1716 9.24616 22.7679 9.05433 22.2963C8.86649 21.8247 8.77257 21.2952 8.77257 20.7077C8.77257 20.1562 8.85849 19.6666 9.03035 19.2389C9.2022 18.8113 9.438 18.4416 9.73774 18.1299C10.0375 17.8182 10.3772 17.5624 10.7569 17.3626C11.1405 17.1627 11.5442 17.0149 11.9678 16.9189C12.3915 16.819 12.8111 16.7691 13.2268 16.7691C13.8382 16.7691 14.4017 16.859 14.9173 17.0388C15.4329 17.2187 15.8825 17.4765 16.2661 17.8122C16.6498 18.1439 16.9476 18.5435 17.1594 19.0111C17.3712 19.4747 17.4771 19.9943 17.4771 20.5698C17.4771 21.2053 17.3572 21.7708 17.1174 22.2664C16.8776 22.7579 16.5399 23.1736 16.1043 23.5133C15.6687 23.853 15.1591 24.1088 14.5756 24.2806C13.9961 24.4565 13.3666 24.5444 12.6872 24.5444ZM12.969 22.9737C13.6684 22.9737 14.2279 22.8618 14.6475 22.638C15.0672 22.4142 15.3709 22.1165 15.5588 21.7448C15.7466 21.3731 15.8405 20.9655 15.8405 20.5218C15.8405 20.1142 15.7726 19.7505 15.6367 19.4308C15.5048 19.1111 15.319 18.8413 15.0792 18.6215C14.8394 18.4017 14.5616 18.2358 14.2459 18.1239C13.9302 18.008 13.5904 17.9501 13.2268 17.9501C12.8711 17.9501 12.5313 18.004 12.2076 18.1119C11.8839 18.2198 11.5961 18.3737 11.3444 18.5735C11.0926 18.7733 10.8928 19.0151 10.7449 19.2989C10.601 19.5827 10.5291 19.9004 10.5291 20.2521C10.5291 20.6717 10.589 21.0494 10.7089 21.3851C10.8328 21.7168 11.0027 22.0026 11.2185 22.2424C11.4383 22.4782 11.6961 22.66 11.9918 22.7879C12.2916 22.9118 12.6173 22.9737 12.969 22.9737Z" fill="#06A5FF"></path><path d="M4.27139 24.1967C4.05157 24.1967 3.88572 24.1227 3.77381 23.9749C3.66191 23.831 3.59397 23.5972 3.56999 23.2735C3.56599 23.1416 3.56199 22.9657 3.558 22.7459C3.558 22.5221 3.56 22.2723 3.56399 21.9966C3.56799 21.7168 3.57198 21.427 3.57598 21.1273C3.58397 20.8236 3.58997 20.5258 3.59397 20.2341C3.60196 19.9383 3.60596 19.6646 3.60596 19.4128C3.60995 19.157 3.61195 18.9392 3.61195 18.7593C3.61195 18.5195 3.57798 18.3597 3.51004 18.2797C3.44609 18.1998 3.29822 18.1598 3.06642 18.1598C2.81863 18.1598 2.56884 18.1798 2.31706 18.2198C2.06927 18.2558 1.82348 18.2737 1.57969 18.2737C1.45979 18.2737 1.35189 18.2518 1.25597 18.2078C1.16005 18.1638 1.08412 18.0999 1.02816 18.016C0.976209 17.928 0.950231 17.8221 0.950231 17.6982C0.950231 17.5544 1.02217 17.4285 1.16605 17.3206C1.31392 17.2127 1.51774 17.1227 1.77752 17.0508C2.0373 16.9749 2.34304 16.9149 2.69474 16.8709C3.04644 16.823 3.43011 16.789 3.84575 16.769C4.26139 16.7491 4.69302 16.7391 5.14064 16.7391C5.43239 16.7391 5.71815 16.7451 5.99791 16.757C6.28166 16.769 6.54744 16.791 6.79522 16.823C7.04701 16.855 7.26682 16.9029 7.45466 16.9669C7.64649 17.0308 7.79636 17.1147 7.90427 17.2187C8.01218 17.3186 8.06613 17.4445 8.06613 17.5963C8.06613 17.7362 8.03616 17.8521 7.97621 17.944C7.92026 18.0359 7.83833 18.1059 7.73042 18.1538C7.62251 18.1978 7.48863 18.2198 7.32877 18.2198C7.12094 18.2198 6.9431 18.2138 6.79522 18.2018C6.64735 18.1858 6.4735 18.1778 6.27367 18.1778C5.97792 18.1778 5.76211 18.2018 5.62622 18.2498C5.49034 18.2937 5.40442 18.3817 5.36845 18.5135C5.33248 18.6414 5.3105 18.8353 5.3025 19.095C5.29851 19.2669 5.29051 19.4507 5.27852 19.6466C5.27053 19.8424 5.26054 20.0482 5.24855 20.264C5.23656 20.4799 5.22057 20.6997 5.20059 20.9235C5.1846 21.1433 5.16662 21.3631 5.14664 21.5829C5.13065 21.7987 5.11267 22.0105 5.09268 22.2184C5.0767 22.4222 5.05871 22.614 5.03873 22.7939C5.01875 22.9737 5.00076 23.1376 4.98477 23.2855C4.93682 23.5133 4.88486 23.6951 4.82891 23.831C4.77695 23.9629 4.70701 24.0568 4.61909 24.1127C4.53516 24.1687 4.41926 24.1967 4.27139 24.1967Z" fill="#06A5FF"></path></svg> 