<?xml version="1.0" encoding="UTF-8"?> <svg xmlns="http://www.w3.org/2000/svg" width="96" height="22" viewBox="0 0 96 22" fill="none"><path fill-rule="evenodd" clip-rule="evenodd" d="M6.62141 0.476115C7.71022 -0.158705 9.05169 -0.158705 10.1405 0.476116L15.0024 3.31078C16.0912 3.9456 16.7619 5.1188 16.7619 6.38844V9.94222V12.0578V15.6116C16.7619 16.8812 16.0912 18.0544 15.0024 18.6892L10.1405 21.5239C9.05169 22.1587 7.71022 22.1587 6.62141 21.5239L1.75954 18.6892C0.670734 18.0544 0 16.8812 0 15.6116V12.0578V9.94222V6.38844C0 5.1188 0.670734 3.9456 1.75954 3.31078L6.62141 0.476115ZM9.3737 3.82895C8.74508 3.46205 7.97058 3.46205 7.34196 3.82895L4.53496 5.4673C3.90634 5.83421 3.51909 6.51228 3.51909 7.24609V10.5228C3.51909 11.2566 3.90634 11.9347 4.53496 12.3016L7.34196 13.9399C7.97058 14.3068 8.74508 14.3068 9.3737 13.9399L12.1807 12.3016C12.8093 11.9347 13.1966 11.2566 13.1966 10.5228V7.24609C13.1966 6.51228 12.8093 5.83421 12.1807 5.4673L9.3737 3.82895Z" fill="url(#paint0_linear_478_15895)"></path><path d="M86.2573 8.54391L84.6401 12.0142H87.8657L86.2573 8.54391ZM77.2275 16.8918L83.53 5.14355H88.9758L95.2783 16.8918H90.1209L89.1944 14.8813H83.3115L82.3849 16.8918H77.2275Z" fill="white"></path><path d="M61.2876 5.13502H72.6076C75.0289 5.10879 77.0831 7.14551 77.0481 9.57559C77.0481 10.4585 76.8121 11.2627 76.3401 11.9794C75.8768 12.6875 75.2562 13.2294 74.4869 13.5878L77.0481 16.8833H72.1705L69.959 14.0162H65.868V16.8833H61.2876V5.13502ZM71.4537 8.57034H65.868V10.5721H71.4537C71.7334 10.5721 71.9694 10.4759 72.1618 10.2836C72.3628 10.0826 72.459 9.84657 72.459 9.57559C72.459 9.01615 72.0132 8.57034 71.4537 8.57034Z" fill="white"></path><path d="M54.8144 11.1487V5.12598H59.4036V11.4372C59.421 15.8778 55.7847 17.154 51.3791 17.1627C46.9734 17.154 43.3371 15.8778 43.3546 11.4372V5.12598H47.935V11.1487C47.9175 13.0805 49.4997 13.4127 51.3791 13.4389C53.2497 13.4127 54.8406 13.0805 54.8144 11.1487Z" fill="white"></path><path d="M34.215 4.8374C38.6381 4.8374 42.2307 6.13111 42.2307 10.5717V11.4283C42.2482 15.8689 38.6293 17.1539 34.215 17.1626C29.7919 17.1539 26.173 15.8689 26.1905 11.4283V10.5717C26.173 6.12237 29.7919 4.84614 34.215 4.8374ZM37.6503 11.1399V10.8514C37.6765 8.93706 36.0856 8.58741 34.215 8.56119C32.3356 8.58741 30.7447 8.93706 30.7709 10.8514V11.1399C30.7447 13.063 32.3356 13.4126 34.215 13.4388C36.0856 13.4126 37.6765 13.063 37.6503 11.1399Z" fill="white"></path><defs><linearGradient id="paint0_linear_478_15895" x1="8.38095" y1="0" x2="8.38095" y2="38.6473" gradientUnits="userSpaceOnUse"><stop stop-color="#FF3A2D"></stop><stop offset="1" stop-color="#E74BB0"></stop></linearGradient></defs></svg> 