<?xml version="1.0" encoding="UTF-8"?> <svg xmlns="http://www.w3.org/2000/svg" width="38" height="23" viewBox="0 0 38 23" fill="none"><path d="M23.8498 3.53846C22.9397 3.53846 22.1066 3.83881 21.4415 4.34466C21.1556 4.56209 20.5033 5.28996 20.2261 5.69735L14.1891 14.4487C12.9815 16.5128 10.3766 18.2821 7.5474 18.2821C3.37909 18.2821 0 14.9816 0 10.9103C0 6.83893 3.37909 3.53846 7.5474 3.53846C9.23091 3.53846 10.7857 4.07684 12.0411 4.98693L10.0266 7.93841C9.35069 7.39988 8.48766 7.07692 7.5474 7.07692C5.37988 7.07692 3.62275 8.79316 3.62275 10.9103C3.62275 13.0273 5.37988 14.7436 7.5474 14.7436C8.97819 14.7436 10.2645 13.859 10.9159 12.8785L17.2091 3.73857C17.62 3.13475 18.5231 2.07961 19.2158 1.55278C20.4945 0.580232 22.1053 0 23.8498 0C25.8127 0 27.6007 0.731959 28.9431 1.93169C27.4193 2.20263 26.0128 2.80218 24.8035 3.65243C24.4982 3.57798 24.1787 3.53846 23.8498 3.53846Z" fill="#C29C66"></path><path d="M14.1502 19.4615C15.0603 19.4615 15.8934 19.1612 16.5585 18.6553C16.8444 18.4379 17.4967 17.71 17.7739 17.3027L23.8109 8.55128C25.0185 6.48718 27.6234 4.71795 30.4526 4.71795C34.6209 4.71795 38 8.01841 38 12.0897C38 16.1611 34.6209 19.4615 30.4526 19.4615C28.7691 19.4615 27.2143 18.9232 25.9589 18.0131L27.9734 15.0616C28.6493 15.6001 29.5123 15.9231 30.4526 15.9231C32.6201 15.9231 34.3772 14.2068 34.3772 12.0897C34.3772 9.97265 32.6201 8.25641 30.4526 8.25641C29.0218 8.25641 27.7355 9.14103 27.0841 10.1215L20.7909 19.2614C20.38 19.8652 19.4769 20.9204 18.7842 21.4472C17.5055 22.4198 15.8947 23 14.1502 23C12.1873 23 10.3993 22.268 9.05687 21.0683C10.5807 20.7974 11.9872 20.1978 13.1965 19.3476C13.5018 19.422 13.8213 19.4615 14.1502 19.4615Z" fill="#C29C66"></path></svg> 