<?xml version="1.0" encoding="UTF-8"?> <svg xmlns="http://www.w3.org/2000/svg" width="87" height="26" viewBox="0 0 87 26" fill="none"><rect y="0.791992" width="25.0736" height="25.0736" rx="12.5368" fill="url(#paint0_linear_485_2406)"></rect><path fill-rule="evenodd" clip-rule="evenodd" d="M16.2591 19.3774H8.81498C7.63947 19.3774 6.68652 18.4314 6.68652 17.2644V11.9053C6.69733 11.4457 6.91607 11.0155 7.28205 10.7338L11.2964 7.52057C11.9896 6.92414 13.0135 6.9057 13.7281 7.47678L17.8361 10.7338C18.1856 11.024 18.3875 11.453 18.3875 11.9053V17.2699C18.3875 17.8298 18.1631 18.3667 17.7638 18.7621C17.3645 19.1575 16.8231 19.3789 16.2591 19.3774ZM12.6268 14.7181L12.6073 14.7178L12.5867 14.7181C12.4071 14.718 12.2345 14.648 12.1055 14.523C11.9765 14.3979 11.9012 14.2275 11.8957 14.0479V14.0468C11.9015 13.8674 11.9769 13.6973 12.1059 13.5725C12.2348 13.4476 12.4072 13.3778 12.5867 13.3777L12.6062 13.378L12.6268 13.3777C12.8065 13.3778 12.9791 13.4478 13.1081 13.5729C13.2371 13.6979 13.3123 13.8683 13.3179 14.0479V14.049C13.312 14.2284 13.2366 14.3985 13.1077 14.5234C12.9787 14.6482 12.8063 14.718 12.6268 14.7181ZM11.3731 12.8425C11.7062 12.5293 12.1498 12.3609 12.6068 12.3742L12.6074 12.3744C13.0645 12.3613 13.5081 12.5298 13.8412 12.8431C14.1749 13.1569 14.3704 13.5903 14.3847 14.0482C14.384 14.2651 14.3396 14.4799 14.2543 14.6793C14.1689 14.8786 14.0443 15.0588 13.8878 15.209L13.8853 15.2048C13.7896 15.0601 13.662 14.9393 13.5124 14.8516C13.6192 14.7468 13.7044 14.6215 13.7625 14.4836C13.8206 14.3457 13.8507 14.1976 13.8511 14.0479V14.0459C13.8409 13.732 13.7089 13.4343 13.4832 13.2158C13.2575 12.9974 12.9556 12.8752 12.6415 12.8752L12.607 12.8758L12.5709 12.8752C12.2565 12.8755 11.9544 12.998 11.7287 13.2169C11.5029 13.4358 11.3712 13.7339 11.3613 14.0482C11.3617 14.1975 11.3917 14.3455 11.4496 14.4831C11.5075 14.6207 11.5922 14.7455 11.6986 14.8502L11.6935 14.853C11.5451 14.9411 11.4188 15.062 11.3243 15.2065L11.3237 15.2059C11.168 15.0558 11.044 14.876 10.9591 14.6771C10.8742 14.4781 10.8302 14.2642 10.8297 14.0479V14.0451C10.8446 13.5881 11.04 13.1557 11.3731 12.8425ZM12.607 12.8758L12.6062 12.8758H12.6079L12.607 12.8758ZM9.76574 14.0479C9.76574 12.5701 11.0375 11.3717 12.6068 11.372L12.6065 11.3714C14.1755 11.3714 15.4475 12.5695 15.4475 14.0476V14.049C15.4368 15.0247 14.8975 15.8738 14.0896 16.3303C14.1071 16.2073 14.116 16.0833 14.1162 15.9591V15.9576C14.1142 15.8727 14.1046 15.79 14.0891 15.7183L14.0939 15.7146C14.3488 15.5175 14.5554 15.2649 14.6982 14.9761C14.8409 14.6873 14.9161 14.3698 14.9179 14.0476C14.9179 12.8453 13.883 11.8706 12.6065 11.8706C11.3299 11.8706 10.295 12.8453 10.295 14.0476V14.0485C10.2971 14.3708 10.3726 14.6884 10.5156 14.9773C10.6586 15.2661 10.8655 15.5185 11.1204 15.7155C11.1046 15.7941 11.0956 15.8751 11.0942 15.9593C11.0942 16.0828 11.1031 16.2064 11.1208 16.3286L11.1078 16.3218C10.7045 16.0936 10.3682 15.7634 10.1327 15.3643C9.89713 14.9652 9.7706 14.5113 9.76574 14.0479ZM11.1204 15.7155C11.1203 15.7154 11.1205 15.7155 11.1204 15.7155L11.1222 15.707C11.1216 15.7098 11.121 15.7126 11.1204 15.7155ZM14.0896 16.3303C14.0894 16.3304 14.0897 16.3302 14.0896 16.3303L14.0874 16.3452C14.0882 16.3403 14.0889 16.3353 14.0896 16.3303ZM12.5791 15.0526L12.6068 15.0529L12.6062 15.0526H12.6048C12.8568 15.045 13.1015 15.1377 13.2852 15.3105C13.4689 15.4832 13.5765 15.7217 13.5844 15.9737C13.5844 16.4813 13.146 18.1457 12.6065 18.1457C12.067 18.1457 11.6286 16.4824 11.6286 15.9737V15.9723C11.6368 15.7257 11.7405 15.4919 11.9179 15.3203C12.0952 15.1487 12.3323 15.0527 12.5791 15.0526Z" fill="white"></path><path d="M32.9633 20.3286V6.28738H38.3491C39.1114 6.28738 39.8 6.47794 40.4152 6.85906C41.0303 7.24018 41.5184 7.75168 41.8795 8.39357C42.2405 9.02877 42.4211 9.73417 42.4211 10.5098C42.4211 11.145 42.3041 11.73 42.07 12.2649C41.8427 12.7932 41.5218 13.2512 41.1072 13.639C40.6993 14.0268 40.228 14.321 39.6931 14.5216L43.0529 20.3286H40.2346L36.9851 14.7422H35.4105V20.3286H32.9633ZM35.4105 12.295H38.0683C38.416 12.295 38.7336 12.2081 39.0211 12.0343C39.3086 11.8604 39.5393 11.6264 39.7131 11.3322C39.887 11.038 39.9739 10.7104 39.9739 10.3493C39.9739 9.98156 39.887 9.65059 39.7131 9.3564C39.5393 9.0622 39.3086 8.82818 39.0211 8.65433C38.7336 8.48049 38.416 8.39357 38.0683 8.39357H35.4105V12.295ZM48.6986 20.5894C47.7759 20.5894 46.9334 20.352 46.1711 19.8773C45.4156 19.4026 44.8105 18.764 44.3558 17.9617C43.9078 17.1593 43.6838 16.2734 43.6838 15.3039C43.6838 14.5751 43.8142 13.8931 44.075 13.2579C44.3358 12.616 44.6935 12.0543 45.1481 11.5729C45.6095 11.0848 46.1444 10.7037 46.7529 10.4295C47.3613 10.1554 48.0099 10.0183 48.6986 10.0183C49.4809 10.0183 50.1963 10.1855 50.8449 10.5198C51.5001 10.8474 52.0551 11.2988 52.5098 11.8738C52.9644 12.4488 53.2954 13.1041 53.5027 13.8396C53.7099 14.5751 53.7567 15.344 53.6431 16.1463H46.3116C46.4052 16.5208 46.5589 16.8584 46.7729 17.1593C46.9869 17.4535 47.2577 17.6909 47.5853 17.8714C47.9129 18.0452 48.284 18.1355 48.6986 18.1422C49.1265 18.1489 49.5143 18.0486 49.862 17.8413C50.2164 17.6273 50.5106 17.3398 50.7446 16.9788L53.2419 17.5605C52.834 18.4498 52.2256 19.1786 51.4165 19.7469C50.6075 20.3086 49.7015 20.5894 48.6986 20.5894ZM46.2313 14.3109H51.1658C51.0923 13.9098 50.9351 13.5487 50.6944 13.2278C50.4604 12.9001 50.1695 12.6394 49.8219 12.4455C49.4742 12.2516 49.0997 12.1546 48.6986 12.1546C48.2974 12.1546 47.9263 12.2516 47.5853 12.4455C47.2443 12.6327 46.9534 12.8901 46.7127 13.2177C46.4787 13.5387 46.3182 13.9031 46.2313 14.3109ZM62.8763 10.2992H65.3235V20.3286H62.8763L62.766 19.085C62.4918 19.5329 62.1274 19.8973 61.6728 20.1782C61.2248 20.4523 60.6932 20.5894 60.0781 20.5894C59.3359 20.5894 58.6405 20.449 57.9919 20.1681C57.3434 19.8873 56.7717 19.4995 56.2769 19.0047C55.7888 18.5099 55.4043 17.9383 55.1235 17.2897C54.8494 16.6411 54.7123 15.9457 54.7123 15.2036C54.7123 14.4881 54.8427 13.8162 55.1035 13.1876C55.3709 12.5591 55.742 12.0075 56.2167 11.5328C56.6915 11.0581 57.2397 10.687 57.8616 10.4195C58.4834 10.1521 59.152 10.0183 59.8675 10.0183C60.5294 10.0183 61.1211 10.1654 61.6427 10.4596C62.1709 10.7538 62.6189 11.1283 62.9866 11.5829L62.8763 10.2992ZM60.0179 18.2325C60.5394 18.2325 61.0008 18.1021 61.402 17.8413C61.8031 17.5805 62.1174 17.2295 62.3447 16.7882C62.5721 16.3402 62.6857 15.8488 62.6857 15.3139C62.6857 14.7723 62.5721 14.2809 62.3447 13.8396C62.1174 13.3916 61.7998 13.0372 61.3919 12.7764C60.9907 12.5157 60.5327 12.3853 60.0179 12.3853C59.503 12.3853 59.0317 12.519 58.6037 12.7865C58.1825 13.0472 57.8448 13.3983 57.5908 13.8396C57.3434 14.2809 57.2197 14.7723 57.2197 15.3139C57.2197 15.8555 57.3467 16.3469 57.6008 16.7882C57.8549 17.2295 58.1925 17.5805 58.6138 17.8413C59.0417 18.1021 59.5097 18.2325 60.0179 18.2325ZM70.2807 20.5091C69.7592 20.4757 69.2543 20.3721 68.7662 20.1982C68.2848 20.0177 67.8569 19.7737 67.4825 19.4661C67.108 19.1585 66.8205 18.7908 66.6199 18.3628L68.686 17.4802C68.7662 17.614 68.8966 17.7577 69.0771 17.9115C69.2577 18.0586 69.4716 18.1823 69.719 18.2826C69.9731 18.3829 70.2506 18.433 70.5515 18.433C70.8056 18.433 71.0463 18.3996 71.2736 18.3328C71.5076 18.2592 71.6948 18.1489 71.8352 18.0018C71.9823 17.8547 72.0559 17.6641 72.0559 17.4301C72.0559 17.1827 71.969 16.9921 71.7951 16.8584C71.628 16.718 71.414 16.6144 71.1532 16.5475C70.8992 16.474 70.6518 16.4071 70.4111 16.3469C69.7759 16.2199 69.1841 16.0226 68.6359 15.7552C68.0943 15.4877 67.6563 15.1434 67.322 14.7222C66.9944 14.2942 66.8306 13.7794 66.8306 13.1776C66.8306 12.5157 67.0044 11.944 67.3521 11.4626C67.7065 10.9812 68.1645 10.6101 68.7261 10.3493C69.2945 10.0885 69.9063 9.95816 70.5615 9.95816C71.3572 9.95816 72.086 10.1253 72.7479 10.4596C73.4166 10.7873 73.9448 11.252 74.3326 11.8537L72.3969 12.9971C72.3033 12.8366 72.1729 12.6895 72.0057 12.5558C71.8386 12.4154 71.648 12.3017 71.4341 12.2148C71.2201 12.1212 70.9961 12.0677 70.7621 12.0543C70.4612 12.0409 70.1871 12.0677 69.9397 12.1346C69.6923 12.2014 69.4917 12.3151 69.3379 12.4756C69.1908 12.636 69.1173 12.85 69.1173 13.1174C69.1173 13.3715 69.2176 13.5621 69.4182 13.6891C69.6187 13.8095 69.8594 13.9031 70.1403 13.9699C70.4278 14.0368 70.7019 14.1104 70.9627 14.1906C71.5511 14.3845 72.1027 14.6219 72.6175 14.9027C73.1391 15.1835 73.557 15.5279 73.8712 15.9357C74.1855 16.3436 74.3359 16.8317 74.3226 17.4C74.3226 18.0486 74.1286 18.6169 73.7408 19.105C73.353 19.5864 72.8516 19.9542 72.2364 20.2083C71.628 20.4623 70.9761 20.5626 70.2807 20.5091ZM83.4445 10.2992H85.8917V20.3286H83.4445L83.3342 19.085C83.06 19.5329 82.6956 19.8973 82.241 20.1782C81.793 20.4523 81.2614 20.5894 80.6463 20.5894C79.9041 20.5894 79.2087 20.449 78.5601 20.1681C77.9116 19.8873 77.3399 19.4995 76.8451 19.0047C76.357 18.5099 75.9726 17.9383 75.6917 17.2897C75.4176 16.6411 75.2805 15.9457 75.2805 15.2036C75.2805 14.4881 75.4109 13.8162 75.6717 13.1876C75.9391 12.5591 76.3102 12.0075 76.7849 11.5328C77.2597 11.0581 77.8079 10.687 78.4298 10.4195C79.0516 10.1521 79.7202 10.0183 80.4357 10.0183C81.0976 10.0183 81.6893 10.1654 82.2109 10.4596C82.7391 10.7538 83.1871 11.1283 83.5548 11.5829L83.4445 10.2992ZM80.5861 18.2325C81.1076 18.2325 81.569 18.1021 81.9702 17.8413C82.3713 17.5805 82.6856 17.2295 82.9129 16.7882C83.1403 16.3402 83.2539 15.8488 83.2539 15.3139C83.2539 14.7723 83.1403 14.2809 82.9129 13.8396C82.6856 13.3916 82.368 13.0372 81.9601 12.7764C81.559 12.5157 81.1009 12.3853 80.5861 12.3853C80.0713 12.3853 79.5999 12.519 79.1719 12.7865C78.7507 13.0472 78.4131 13.3983 78.159 13.8396C77.9116 14.2809 77.7879 14.7723 77.7879 15.3139C77.7879 15.8555 77.9149 16.3469 78.169 16.7882C78.4231 17.2295 78.7607 17.5805 79.182 17.8413C79.6099 18.1021 80.0779 18.2325 80.5861 18.2325Z" fill="white"></path><defs><linearGradient id="paint0_linear_485_2406" x1="25.0736" y1="25.8656" x2="-4.76174" y2="17.2151" gradientUnits="userSpaceOnUse"><stop stop-color="#246BFD"></stop><stop offset="1" stop-color="#5089FF"></stop></linearGradient></defs></svg> 