<svg width="18" height="18" viewBox="0 0 18 18" fill="none" xmlns="http://www.w3.org/2000/svg">
<g opacity="0.3">
<path d="M3.13214 11.3576V3.5315H1.95823C1.7013 3.5315 1.44688 3.58211 1.2095 3.68043C0.972126 3.77876 0.756441 3.92288 0.574761 4.10456C0.207842 4.47147 0.00170898 4.96912 0.00170898 5.48802V9.40107C0.00170898 9.91997 0.207842 10.4176 0.574761 10.7845C0.756441 10.9662 0.972126 11.1103 1.2095 11.2087C1.44688 11.307 1.7013 11.3576 1.95823 11.3576H3.13214Z" fill="white"/>
<path d="M15.0669 0.00976562C14.7038 0.0102006 14.3557 0.154633 14.099 0.411382C13.8422 0.668131 13.6978 1.01623 13.6974 1.37933V13.9011C13.6974 14.2643 13.8417 14.6126 14.0985 14.8695C14.3553 15.1263 14.7037 15.2706 15.0669 15.2706C15.4302 15.2706 15.7785 15.1263 16.0354 14.8695C16.2922 14.6126 16.4365 14.2643 16.4365 13.9011V1.37933C16.4361 1.01623 16.2916 0.668131 16.0349 0.411382C15.7781 0.154633 15.43 0.0102006 15.0669 0.00976562Z" fill="white"/>
<path d="M17.2191 5.38092V9.50817C17.7233 8.939 18.0017 8.20492 18.0017 7.44453C18.0017 6.68414 17.7233 5.9501 17.2191 5.38092Z" fill="white"/>
<path d="M3.91475 11.3621C7.5389 11.3621 11.2077 12.7999 12.9148 13.573V1.37933C12.9148 1.35663 12.9203 1.33543 12.9215 1.31281C11.2174 2.08544 7.54363 3.52704 3.91475 3.527V11.3621Z" fill="white"/>
<path d="M5.80377 13.0647C6.03565 12.8855 6.19217 12.6261 6.24262 12.3375C5.78166 12.2662 5.31413 12.2137 4.84527 12.1809C4.79577 12.1774 4.74651 12.1742 4.69697 12.1711C4.43644 12.1555 4.17575 12.1447 3.9155 12.1447H3.13289V12.1402H1.95823C1.95883 12.4458 2.07863 12.7391 2.29214 12.9578C2.50565 13.1764 2.79604 13.3032 3.10154 13.311L3.86146 16.5061C3.96224 16.9349 4.20523 17.3169 4.55086 17.5899C4.89648 17.863 5.32437 18.011 5.76484 18.0098H6.48484C6.54392 18.0097 6.60223 17.9964 6.6554 17.9706C6.70857 17.9448 6.75522 17.9074 6.79184 17.861C6.82846 17.8146 6.85411 17.7606 6.86686 17.7029C6.87961 17.6452 6.87913 17.5854 6.86546 17.5279L5.80377 13.0647Z" fill="white"/>
</g>
</svg>
