<svg width="14" height="14" viewBox="0 0 14 14" fill="none" xmlns="http://www.w3.org/2000/svg">
<path fill-rule="evenodd" clip-rule="evenodd" d="M7.70195 0.234151C7.2914 -0.0780503 6.71058 -0.0780506 6.30003 0.234151L5.36308 0.946593C5.15083 1.10798 4.88509 1.19075 4.61443 1.17978L3.41962 1.13133C2.89602 1.1101 2.42614 1.43737 2.28541 1.92129L1.96425 3.02559C1.8915 3.27575 1.72726 3.49247 1.50156 3.63608L0.505222 4.27014C0.0686118 4.54801 -0.110865 5.07752 0.0719951 5.54834L0.489277 6.6227C0.583803 6.86607 0.583803 7.13392 0.489277 7.3773L0.0719951 8.45166C-0.110864 8.92248 0.0686118 9.45198 0.505222 9.72985L1.50156 10.3639C1.72726 10.5075 1.8915 10.7242 1.96425 10.9744L2.28541 12.0787C2.42614 12.5626 2.89602 12.8899 3.41962 12.8687L4.61443 12.8202C4.88509 12.8092 5.15083 12.892 5.36308 13.0534L6.30003 13.7658C6.71058 14.0781 7.2914 14.0781 7.70195 13.7658L8.6389 13.0534C8.85115 12.892 9.11688 12.8092 9.38755 12.8202L10.5824 12.8687C11.106 12.8899 11.5758 12.5626 11.7166 12.0787L12.0377 10.9744C12.1105 10.7242 12.2747 10.5075 12.5004 10.3639L13.4968 9.72985C13.9334 9.45198 14.1128 8.92248 13.93 8.45166L13.5127 7.3773C13.4182 7.13392 13.4182 6.86607 13.5127 6.6227L13.93 5.54834C14.1128 5.07752 13.9334 4.54801 13.4968 4.27014L12.5004 3.63608C12.2747 3.49247 12.1105 3.27575 12.0377 3.02559L11.7166 1.92129C11.5758 1.43737 11.106 1.1101 10.5824 1.13133L9.38755 1.17978C9.11688 1.19075 8.85115 1.10798 8.6389 0.946593L7.70195 0.234151ZM5.81942 6.46979C5.45492 6.11987 4.86398 6.11987 4.49948 6.46979C4.13499 6.8197 4.13499 7.38701 4.49948 7.73693L5.78141 8.96756C6.14588 9.31747 6.73686 9.31747 7.10132 8.96756L9.55608 6.61102C9.92057 6.26111 9.92057 5.6938 9.55608 5.34388C9.19158 4.99397 8.60063 4.99397 8.23614 5.34388L6.44137 7.06686L5.81942 6.46979Z" fill="black"/>
<path fill-rule="evenodd" clip-rule="evenodd" d="M7.70195 0.234151C7.2914 -0.0780503 6.71058 -0.0780506 6.30003 0.234151L5.36308 0.946593C5.15083 1.10798 4.88509 1.19075 4.61443 1.17978L3.41962 1.13133C2.89602 1.1101 2.42614 1.43737 2.28541 1.92129L1.96425 3.02559C1.8915 3.27575 1.72726 3.49247 1.50156 3.63608L0.505222 4.27014C0.0686118 4.54801 -0.110865 5.07752 0.0719951 5.54834L0.489277 6.6227C0.583803 6.86607 0.583803 7.13392 0.489277 7.3773L0.0719951 8.45166C-0.110864 8.92248 0.0686118 9.45198 0.505222 9.72985L1.50156 10.3639C1.72726 10.5075 1.8915 10.7242 1.96425 10.9744L2.28541 12.0787C2.42614 12.5626 2.89602 12.8899 3.41962 12.8687L4.61443 12.8202C4.88509 12.8092 5.15083 12.892 5.36308 13.0534L6.30003 13.7658C6.71058 14.0781 7.2914 14.0781 7.70195 13.7658L8.6389 13.0534C8.85115 12.892 9.11688 12.8092 9.38755 12.8202L10.5824 12.8687C11.106 12.8899 11.5758 12.5626 11.7166 12.0787L12.0377 10.9744C12.1105 10.7242 12.2747 10.5075 12.5004 10.3639L13.4968 9.72985C13.9334 9.45198 14.1128 8.92248 13.93 8.45166L13.5127 7.3773C13.4182 7.13392 13.4182 6.86607 13.5127 6.6227L13.93 5.54834C14.1128 5.07752 13.9334 4.54801 13.4968 4.27014L12.5004 3.63608C12.2747 3.49247 12.1105 3.27575 12.0377 3.02559L11.7166 1.92129C11.5758 1.43737 11.106 1.1101 10.5824 1.13133L9.38755 1.17978C9.11688 1.19075 8.85115 1.10798 8.6389 0.946593L7.70195 0.234151ZM5.81942 6.46979C5.45492 6.11987 4.86398 6.11987 4.49948 6.46979C4.13499 6.8197 4.13499 7.38701 4.49948 7.73693L5.78141 8.96756C6.14588 9.31747 6.73686 9.31747 7.10132 8.96756L9.55608 6.61102C9.92057 6.26111 9.92057 5.6938 9.55608 5.34388C9.19158 4.99397 8.60063 4.99397 8.23614 5.34388L6.44137 7.06686L5.81942 6.46979Z" fill="url(#paint0_linear_1_19260)"/>
<defs>
<linearGradient id="paint0_linear_1_19260" x1="0.000991821" y1="0" x2="14.9088" y2="1.04458" gradientUnits="userSpaceOnUse">
<stop stop-color="#16ADEC"/>
<stop offset="1" stop-color="#1464DB"/>
</linearGradient>
</defs>
</svg>
