<svg width="18" height="19" viewBox="0 0 18 19" fill="none" xmlns="http://www.w3.org/2000/svg">
<g opacity="0.3">
<path d="M16.3834 9.54614H17.4733C17.7648 9.54614 18.0007 9.78201 18.0007 10.0735V17.4915C18.0007 17.7829 17.7648 18.0188 17.4733 18.0188H16.3834C15.5109 18.0188 14.8012 17.3091 14.8012 16.4368V11.1282C14.8012 10.2558 15.5109 9.54614 16.3834 9.54614Z" fill="white"/>
<path d="M8.99983 0.0187988C12.1987 0.0187988 14.8012 2.65619 14.8012 5.85474C14.8012 6.94553 14.4971 7.99431 13.9379 8.89842C13.2294 8.50306 12.4423 8.28442 11.6255 8.28442C10.5039 8.28442 9.37059 8.67683 8.40907 9.54614H5.80028C5.41859 9.54614 5.06699 9.65945 4.7578 9.83738C3.77241 8.79724 3.1633 7.39718 3.1633 5.85474C3.1633 2.65619 5.80095 0.0187988 8.99983 0.0187988ZM8.99979 4.27271C8.12733 4.27271 7.4176 4.98237 7.4176 5.85474C7.4176 6.49177 7.79666 7.06394 8.3833 7.31214C8.41245 7.32451 8.44286 7.32933 8.47239 7.33981V7.96411C8.47239 8.25559 8.70828 8.49146 8.99979 8.49146C9.2913 8.49146 9.52719 8.25559 9.52719 7.96411V7.34125C9.80087 7.24914 10.0662 7.09463 10.3044 6.86411C10.5135 6.66171 10.5186 6.32801 10.3157 6.11841C10.1133 5.90933 9.77851 5.90469 9.56991 6.10709C9.31394 6.3548 9.03119 6.44079 8.79477 6.34088C8.59907 6.25798 8.47236 6.06743 8.47236 5.85474C8.47236 5.56378 8.70877 5.32739 8.99975 5.32739C9.87221 5.32739 10.5819 4.61773 10.5819 3.74536C10.582 3.08256 10.1638 2.48519 9.54111 2.2586C9.53654 2.25692 9.53176 2.25769 9.52719 2.25611V1.60083C9.52719 1.30935 9.2913 1.07349 8.99979 1.07349C8.70828 1.07349 8.47239 1.30935 8.47239 1.60083V2.24999C8.12463 2.36717 7.79254 2.59948 7.50771 2.93891C7.32024 3.16191 7.34907 3.49459 7.57262 3.68152C7.79511 3.8695 8.12885 3.84063 8.3153 3.61662C8.59443 3.28496 8.90915 3.15157 9.18005 3.24945C9.3876 3.32514 9.52719 3.52444 9.52719 3.74536C9.52719 4.03631 9.29077 4.27271 8.99979 4.27271Z" fill="white"/>
<path d="M0.431349 9.74653C0.86385 9.43013 1.46508 9.49341 1.82368 9.88364L4.67162 13.4274C4.87203 13.6383 5.25176 13.7649 5.45217 13.7649H8.99983C9.2952 13.7649 9.52722 13.5329 9.52722 13.2375C9.52722 12.9422 9.2952 12.7102 8.99983 12.7102C6.63709 12.7102 8.42672 12.7102 5.80028 12.7102C5.22015 12.7102 4.74549 12.2356 4.74549 11.6555C4.74549 11.0754 5.22015 10.6008 5.80028 10.6008C8.27715 10.6008 5.94971 10.6008 8.599 10.6008C8.86186 10.6008 8.99293 10.4342 9.20024 10.2527C9.51667 9.96802 9.8753 9.75708 10.2445 9.60939C11.3875 9.14269 12.7082 9.28391 13.7464 10.0058C13.7464 11.926 13.7464 14.7872 13.7464 16.9641H5.80028C4.80878 16.9641 3.85943 16.4543 3.26874 15.6633L0.209877 11.2336C-0.138239 10.7695 -0.043272 10.0946 0.431349 9.74653Z" fill="white"/>
</g>
</svg>
