<svg width="32" height="18" viewBox="0 0 32 18" fill="none" xmlns="http://www.w3.org/2000/svg">
<path d="M26.5543 10.3217C26.0369 9.69171 26.1849 9.41143 26.5543 8.84829C26.5609 8.84186 30.8317 3.15129 31.2717 1.22143L31.2744 1.22014C31.4931 0.516857 31.2744 0 30.217 0H26.7183C25.8276 0 25.4169 0.443571 25.1969 0.939857C25.1969 0.939857 23.4155 5.05157 20.8954 7.71686C20.082 8.487 19.706 8.73386 19.262 8.73386C19.0433 8.73386 18.7033 8.487 18.7033 7.78371V1.22014C18.7033 0.376714 18.454 0 17.7166 0H12.2151C11.6564 0 11.3244 0.393429 11.3244 0.759857C11.3244 1.55957 12.5844 1.74343 12.7151 3.99343V8.87529C12.7151 9.945 12.5138 10.1417 12.0671 10.1417C10.8777 10.1417 7.99094 6.01329 6.28022 1.28829C5.93487 0.371571 5.59753 0.00128562 4.70016 0.00128562H1.20004C0.20134 0.00128562 0 0.444857 0 0.941143C0 1.818 1.18937 6.17786 5.53086 11.9379C8.42429 15.8696 12.4991 18 16.2059 18C18.434 18 18.706 17.5269 18.706 16.713C18.706 12.9561 18.5046 12.6013 19.6207 12.6013C20.138 12.6013 21.0287 12.8481 23.1088 14.7446C25.4862 16.9933 25.8769 18 27.2076 18H30.7064C31.7038 18 32.2091 17.5269 31.9184 16.5934C31.2531 14.6301 26.7569 10.5917 26.5543 10.3217Z" fill="white"/>
</svg>
